<svg xmlns="http://www.w3.org/2000/svg" xmlns:xlink="http://www.w3.org/1999/xlink" version="1.1" width="2556" height="1124" name="GTRGI_tree.svg" y="0" viewBox="0 0 2556 1124">
<polyline points="2556,1124 0,1124 0,0 2556,0 2556,1124" fill="white" />
<text x="2067" y="43" fill="#000000" font-size="18" font-family="Arial" > JQ041652.1 Halophila ovalis subsp. ramamurthiana from</text>
<polyline points="2012,47 2012,35 2061,35" fill="none" stroke="#000000" stroke-width="1" stroke-linecap="square"/>
<text x="2028" y="67" fill="#000000" font-size="18" font-family="Arial" > JQ041659.1 Halophila minor</text>
<polyline points="2012,48 2012,59 2022,59" fill="none" stroke="#000000" stroke-width="1" stroke-linecap="square"/>
<text x="2028" y="91" fill="#000000" font-size="18" font-family="Arial" > JQ041658.1 Halophila ovalis</text>
<polyline points="2012,60 2012,83 2022,83" fill="none" stroke="#000000" stroke-width="1" stroke-linecap="square"/>
<line x1="2012" y1="36" x2="2012" y2="61" stroke="#000000" stroke-width="1" stroke-linecap="square"/>
<polyline points="2002,83 2002,59 2012,59" fill="none" stroke="#000000" stroke-width="1" stroke-linecap="square"/>
<text x="2018" y="115" fill="#000000" font-size="18" font-family="Arial" > AY952400.1 Halophila ovalis</text>
<polyline points="2002,84 2002,107 2012,107" fill="none" stroke="#000000" stroke-width="1" stroke-linecap="square"/>
<polyline points="1992,113 1992,83 2002,83" fill="none" stroke="#000000" stroke-width="1" stroke-linecap="square"/>
<text x="2057" y="139" fill="#000000" font-size="18" font-family="Arial" > JQ041643.1 Halophila stipulacea</text>
<polyline points="2002,143 2002,131 2051,131" fill="none" stroke="#000000" stroke-width="1" stroke-linecap="square"/>
<text x="2037" y="163" fill="#000000" font-size="18" font-family="Arial" > JQ041661.1 Halophila decipiens</text>
<polyline points="2002,144 2002,155 2031,155" fill="none" stroke="#000000" stroke-width="1" stroke-linecap="square"/>
<polyline points="1992,114 1992,143 2002,143" fill="none" stroke="#000000" stroke-width="1" stroke-linecap="square"/>
<polyline points="1982,146 1982,113 1992,113" fill="none" stroke="#000000" stroke-width="1" stroke-linecap="square"/>
<text x="2007" y="187" fill="#000000" font-size="18" font-family="Arial" > JQ041646.1 Halophila beccarii</text>
<polyline points="1982,147 1982,179 2001,179" fill="none" stroke="#000000" stroke-width="1" stroke-linecap="square"/>
<polyline points="1938,192 1938,146 1982,146" fill="none" stroke="#000000" stroke-width="1" stroke-linecap="square"/>
<text x="2093" y="211" fill="#000000" font-size="18" font-family="Arial" > AF168878.1 Thalassia testudinum</text>
<polyline points="1961,215 1961,203 2087,203" fill="none" stroke="#000000" stroke-width="1" stroke-linecap="square"/>
<text x="2006" y="235" fill="#000000" font-size="18" font-family="Arial" > JQ041656.1 Thalassia hemprichii</text>
<polyline points="1961,216 1961,227 2000,227" fill="none" stroke="#000000" stroke-width="1" stroke-linecap="square"/>
<polyline points="1946,239 1946,215 1961,215" fill="none" stroke="#000000" stroke-width="1" stroke-linecap="square"/>
<text x="1974" y="259" fill="#000000" font-size="18" font-family="Arial" > AY952403.1 Enhalus acoroides</text>
<polyline points="1968,263 1968,251 1968,251" fill="none" stroke="#000000" stroke-width="1" stroke-linecap="square"/>
<text x="1993" y="283" fill="#000000" font-size="18" font-family="Arial" > JQ041644.1 Enhalus acoroides</text>
<polyline points="1968,264 1968,275 1987,275" fill="none" stroke="#000000" stroke-width="1" stroke-linecap="square"/>
<polyline points="1946,240 1946,263 1968,263" fill="none" stroke="#000000" stroke-width="1" stroke-linecap="square"/>
<polyline points="1938,193 1938,239 1946,239" fill="none" stroke="#000000" stroke-width="1" stroke-linecap="square"/>
<polyline points="1918,245 1918,192 1938,192" fill="none" stroke="#000000" stroke-width="1" stroke-linecap="square"/>
<text x="1982" y="307" fill="#000000" font-size="18" font-family="Arial" > AY952398.1 Hydrocharis dubia</text>
<polyline points="1918,246 1918,299 1976,299" fill="none" stroke="#000000" stroke-width="1" stroke-linecap="square"/>
<polyline points="1907,290 1907,245 1918,245" fill="none" stroke="#000000" stroke-width="1" stroke-linecap="square"/>
<text x="1990" y="331" fill="#000000" font-size="18" font-family="Arial" > EF526335.1 Najas guadalupensis</text>
<polyline points="1984,335 1984,323 1984,323" fill="none" stroke="#000000" stroke-width="1" stroke-linecap="square"/>
<text x="1990" y="355" fill="#000000" font-size="18" font-family="Arial" > EF526347.1 Najas minor</text>
<polyline points="1984,336 1984,347 1984,347" fill="none" stroke="#000000" stroke-width="1" stroke-linecap="square"/>
<polyline points="1907,291 1907,335 1984,335" fill="none" stroke="#000000" stroke-width="1" stroke-linecap="square"/>
<polyline points="1887,336 1887,290 1907,290" fill="none" stroke="#000000" stroke-width="1" stroke-linecap="square"/>
<text x="2003" y="379" fill="#000000" font-size="18" font-family="Arial" > AF069201.1 Vallisneria americana</text>
<polyline points="1997,383 1997,371 1997,371" fill="none" stroke="#000000" stroke-width="1" stroke-linecap="square"/>
<text x="2003" y="403" fill="#000000" font-size="18" font-family="Arial" > AY952384.1 Vallisneria asiatica</text>
<polyline points="1997,384 1997,395 1997,395" fill="none" stroke="#000000" stroke-width="1" stroke-linecap="square"/>
<polyline points="1887,337 1887,383 1997,383" fill="none" stroke="#000000" stroke-width="1" stroke-linecap="square"/>
<polyline points="1854,377 1854,336 1887,336" fill="none" stroke="#000000" stroke-width="1" stroke-linecap="square"/>
<text x="1918" y="427" fill="#000000" font-size="18" font-family="Arial" > AY952399.1 Hydrilla verticillata</text>
<polyline points="1854,378 1854,419 1912,419" fill="none" stroke="#000000" stroke-width="1" stroke-linecap="square"/>
<polyline points="1575,427 1575,377 1854,377" fill="none" stroke="#000000" stroke-width="1" stroke-linecap="square"/>
<text x="1815" y="451" fill="#000000" font-size="18" font-family="Arial" > JN034103.1 Ruppia maritima</text>
<polyline points="1595,477 1595,443 1809,443" fill="none" stroke="#000000" stroke-width="1" stroke-linecap="square"/>
<text x="1689" y="475" fill="#000000" font-size="18" font-family="Arial" > HQ660595.1 Phyllospadix iwatensis</text>
<polyline points="1664,512 1664,467 1683,467" fill="none" stroke="#000000" stroke-width="1" stroke-linecap="square"/>
<text x="1719" y="499" fill="#000000" font-size="18" font-family="Arial" > JQ041650.1 Zostera noltii</text>
<polyline points="1713,503 1713,491 1713,491" fill="none" stroke="#000000" stroke-width="1" stroke-linecap="square"/>
<text x="1719" y="523" fill="#000000" font-size="18" font-family="Arial" > JQ041651.1 Zostera noltii</text>
<polyline points="1713,504 1713,515 1713,515" fill="none" stroke="#000000" stroke-width="1" stroke-linecap="square"/>
<text x="1729" y="547" fill="#000000" font-size="18" font-family="Arial" > AF207058.1 Zostera noltii</text>
<polyline points="1713,551 1713,539 1723,539" fill="none" stroke="#000000" stroke-width="1" stroke-linecap="square"/>
<text x="1729" y="571" fill="#000000" font-size="18" font-family="Arial" > AY952401.1 Halodule uninervis</text>
<polyline points="1713,552 1713,563 1723,563" fill="none" stroke="#000000" stroke-width="1" stroke-linecap="square"/>
<text x="1757" y="595" fill="#000000" font-size="18" font-family="Arial" > JQ041648.1 Zostera marina</text>
<polyline points="1732,623 1732,587 1751,587" fill="none" stroke="#000000" stroke-width="1" stroke-linecap="square"/>
<text x="1757" y="619" fill="#000000" font-size="18" font-family="Arial" > JQ041647.1 Zostera marina</text>
<polyline points="1732,635 1732,611 1751,611" fill="none" stroke="#000000" stroke-width="1" stroke-linecap="square"/>
<text x="1738" y="643" fill="#000000" font-size="18" font-family="Arial" > HQ445940.1 Zostera marina</text>
<polyline points="1732,647 1732,635 1732,635" fill="none" stroke="#000000" stroke-width="1" stroke-linecap="square"/>
<text x="1738" y="667" fill="#000000" font-size="18" font-family="Arial" > JQ041649.1 Zostera marina</text>
<polyline points="1732,648 1732,659 1732,659" fill="none" stroke="#000000" stroke-width="1" stroke-linecap="square"/>
<line x1="1732" y1="623" x2="1732" y2="659" stroke="#000000" stroke-width="1" stroke-linecap="square"/>
<polyline points="1713,582 1713,623 1732,623" fill="none" stroke="#000000" stroke-width="1" stroke-linecap="square"/>
<line x1="1713" y1="492" x2="1713" y2="559" stroke="#000000" stroke-width="1" stroke-linecap="square"/>
<line x1="1713" y1="557" x2="1713" y2="623" stroke="#000000" stroke-width="1" stroke-linecap="square"/>
<polyline points="1664,513 1664,557 1713,557" fill="none" stroke="#000000" stroke-width="1" stroke-linecap="square"/>
<polyline points="1595,478 1595,512 1664,512" fill="none" stroke="#000000" stroke-width="1" stroke-linecap="square"/>
<polyline points="1575,428 1575,477 1595,477" fill="none" stroke="#000000" stroke-width="1" stroke-linecap="square"/>
<polyline points="1561,576 1561,427 1575,427" fill="none" stroke="#000000" stroke-width="1" stroke-linecap="square"/>
<text x="1737" y="691" fill="#000000" font-size="18" font-family="Arial" > AY491942.1 Posidonia oceanica</text>
<polyline points="1644,695 1644,683 1731,683" fill="none" stroke="#000000" stroke-width="1" stroke-linecap="square"/>
<text x="1699" y="715" fill="#000000" font-size="18" font-family="Arial" > GQ497582.1 Posidonia australis</text>
<polyline points="1644,696 1644,707 1693,707" fill="none" stroke="#000000" stroke-width="1" stroke-linecap="square"/>
<polyline points="1581,725 1581,695 1644,695" fill="none" stroke="#000000" stroke-width="1" stroke-linecap="square"/>
<text x="1845" y="739" fill="#000000" font-size="18" font-family="Arial" > AF168883.1 Zannichellia palustris</text>
<polyline points="1800,755 1800,731 1839,731" fill="none" stroke="#000000" stroke-width="1" stroke-linecap="square"/>
<text x="1832" y="763" fill="#000000" font-size="18" font-family="Arial" > EF526353.1 Potamogeton pusillus</text>
<polyline points="1826,779 1826,755 1826,755" fill="none" stroke="#000000" stroke-width="1" stroke-linecap="square"/>
<text x="1832" y="787" fill="#000000" font-size="18" font-family="Arial" > EF526318.1 Potamogeton crispus</text>
<polyline points="1826,791 1826,779 1826,779" fill="none" stroke="#000000" stroke-width="1" stroke-linecap="square"/>
<text x="1832" y="811" fill="#000000" font-size="18" font-family="Arial" > EF526336.1 Potamogeton natans</text>
<polyline points="1826,792 1826,803 1826,803" fill="none" stroke="#000000" stroke-width="1" stroke-linecap="square"/>
<line x1="1826" y1="779" x2="1826" y2="803" stroke="#000000" stroke-width="1" stroke-linecap="square"/>
<polyline points="1800,756 1800,779 1826,779" fill="none" stroke="#000000" stroke-width="1" stroke-linecap="square"/>
<polyline points="1581,726 1581,755 1800,755" fill="none" stroke="#000000" stroke-width="1" stroke-linecap="square"/>
<polyline points="1561,577 1561,725 1581,725" fill="none" stroke="#000000" stroke-width="1" stroke-linecap="square"/>
<polyline points="1515,713 1515,576 1561,576" fill="none" stroke="#000000" stroke-width="1" stroke-linecap="square"/>
<text x="1638" y="835" fill="#000000" font-size="18" font-family="Arial" > JQ041657.1 Halodule uninervis</text>
<polyline points="1632,851 1632,827 1632,827" fill="none" stroke="#000000" stroke-width="1" stroke-linecap="square"/>
<text x="1648" y="859" fill="#000000" font-size="18" font-family="Arial" > JQ041645.1 Halodule pinifolia</text>
<polyline points="1632,863 1632,851 1642,851" fill="none" stroke="#000000" stroke-width="1" stroke-linecap="square"/>
<text x="1638" y="883" fill="#000000" font-size="18" font-family="Arial" > JQ041660.1 Halodule wrightii</text>
<polyline points="1632,864 1632,875 1632,875" fill="none" stroke="#000000" stroke-width="1" stroke-linecap="square"/>
<line x1="1632" y1="851" x2="1632" y2="875" stroke="#000000" stroke-width="1" stroke-linecap="square"/>
<polyline points="1515,714 1515,851 1632,851" fill="none" stroke="#000000" stroke-width="1" stroke-linecap="square"/>
<polyline points="1391,812 1391,713 1515,713" fill="none" stroke="#000000" stroke-width="1" stroke-linecap="square"/>
<text x="1477" y="907" fill="#000000" font-size="18" font-family="Arial" > AF168876.1 Syringodium filiforme</text>
<polyline points="1422,911 1422,899 1471,899" fill="none" stroke="#000000" stroke-width="1" stroke-linecap="square"/>
<text x="1457" y="931" fill="#000000" font-size="18" font-family="Arial" > JQ041653.1 Syringodium isoetifolium</text>
<polyline points="1422,912 1422,923 1451,923" fill="none" stroke="#000000" stroke-width="1" stroke-linecap="square"/>
<polyline points="1391,813 1391,911 1422,911" fill="none" stroke="#000000" stroke-width="1" stroke-linecap="square"/>
<polyline points="1365,879 1365,812 1391,812" fill="none" stroke="#000000" stroke-width="1" stroke-linecap="square"/>
<text x="1430" y="955" fill="#000000" font-size="18" font-family="Arial" > JQ041655.1 Cymodocea serrulata</text>
<polyline points="1365,880 1365,947 1424,947" fill="none" stroke="#000000" stroke-width="1" stroke-linecap="square"/>
<polyline points="1358,925 1358,879 1365,879" fill="none" stroke="#000000" stroke-width="1" stroke-linecap="square"/>
<text x="1417" y="979" fill="#000000" font-size="18" font-family="Arial" > JQ041654.1 Cymodocea rotundata</text>
<polyline points="1358,926 1358,971 1411,971" fill="none" stroke="#000000" stroke-width="1" stroke-linecap="square"/>
<polyline points="40,960 40,925 1358,925" fill="none" stroke="#000000" stroke-width="1" stroke-linecap="square"/>
<text x="2094" y="1003" fill="#000000" font-size="18" font-family="Arial" > JX446578.1 Salicornia bigelovii</text>
<polyline points="40,961 40,995 2088,995" fill="none" stroke="#000000" stroke-width="1" stroke-linecap="square"/>
<text x="1970" y="402" fill="#000000" font-size="15" font-family="Arial" >100</text>
<text x="1403" y="930" fill="#000000" font-size="15" font-family="Arial" >84</text>
<text x="1625" y="691" fill="#000000" font-size="15" font-family="Arial" >90</text>
<text x="1983" y="162" fill="#000000" font-size="15" font-family="Arial" >65</text>
<text x="1942" y="211" fill="#000000" font-size="15" font-family="Arial" >63</text>
<text x="1957" y="354" fill="#000000" font-size="15" font-family="Arial" >100</text>
<text x="1949" y="282" fill="#000000" font-size="15" font-family="Arial" >94</text>
<text x="1613" y="870" fill="#000000" font-size="15" font-family="Arial" >99</text>
<text x="1983" y="79" fill="#000000" font-size="15" font-family="Arial" >52</text>
<text x="1963" y="142" fill="#000000" font-size="15" font-family="Arial" >92</text>
<text x="1496" y="709" fill="#000000" font-size="15" font-family="Arial" >60</text>
<text x="1807" y="798" fill="#000000" font-size="15" font-family="Arial" >97</text>
<text x="1781" y="774" fill="#000000" font-size="15" font-family="Arial" >98</text>
<text x="1713" y="642" fill="#000000" font-size="15" font-family="Arial" >85</text>
<text x="1868" y="332" fill="#000000" font-size="15" font-family="Arial" >58</text>
<text x="1694" y="576" fill="#000000" font-size="15" font-family="Arial" >98</text>
<text x="1645" y="531" fill="#000000" font-size="15" font-family="Arial" >96</text>
<text x="1835" y="373" fill="#000000" font-size="15" font-family="Arial" >99</text>
<text x="1888" y="286" fill="#000000" font-size="15" font-family="Arial" >50</text>
<line x1="60" y1="1032" x2="334" y2="1032" stroke="#000000" stroke-width="1" stroke-linecap="square"/>
<line x1="60" y1="1028" x2="60" y2="1036" stroke="#000000" stroke-width="1" stroke-linecap="square"/>
<line x1="334" y1="1028" x2="334" y2="1036" stroke="#000000" stroke-width="1" stroke-linecap="square"/>
<text x="186" y="1066" fill="#000000" font-size="15" font-family="Arial" >0.02</text>
<text x="2067" y="43" fill="#000000" font-size="18" font-family="Arial" > JQ041652.1 Halophila ovalis subsp. ramamurthiana from</text>
<polyline points="2012,47 2012,35 2061,35" fill="none" stroke="#000000" stroke-width="1" stroke-linecap="square"/>
<text x="2028" y="67" fill="#000000" font-size="18" font-family="Arial" > JQ041659.1 Halophila minor</text>
<polyline points="2012,48 2012,59 2022,59" fill="none" stroke="#000000" stroke-width="1" stroke-linecap="square"/>
<text x="2028" y="91" fill="#000000" font-size="18" font-family="Arial" > JQ041658.1 Halophila ovalis</text>
<polyline points="2012,60 2012,83 2022,83" fill="none" stroke="#000000" stroke-width="1" stroke-linecap="square"/>
<line x1="2012" y1="36" x2="2012" y2="61" stroke="#000000" stroke-width="1" stroke-linecap="square"/>
<polyline points="2002,83 2002,59 2012,59" fill="none" stroke="#000000" stroke-width="1" stroke-linecap="square"/>
<text x="2018" y="115" fill="#000000" font-size="18" font-family="Arial" > AY952400.1 Halophila ovalis</text>
<polyline points="2002,84 2002,107 2012,107" fill="none" stroke="#000000" stroke-width="1" stroke-linecap="square"/>
<polyline points="1992,113 1992,83 2002,83" fill="none" stroke="#000000" stroke-width="1" stroke-linecap="square"/>
<text x="2057" y="139" fill="#000000" font-size="18" font-family="Arial" > JQ041643.1 Halophila stipulacea</text>
<polyline points="2002,143 2002,131 2051,131" fill="none" stroke="#000000" stroke-width="1" stroke-linecap="square"/>
<text x="2037" y="163" fill="#000000" font-size="18" font-family="Arial" > JQ041661.1 Halophila decipiens</text>
<polyline points="2002,144 2002,155 2031,155" fill="none" stroke="#000000" stroke-width="1" stroke-linecap="square"/>
<polyline points="1992,114 1992,143 2002,143" fill="none" stroke="#000000" stroke-width="1" stroke-linecap="square"/>
<polyline points="1982,146 1982,113 1992,113" fill="none" stroke="#000000" stroke-width="1" stroke-linecap="square"/>
<text x="2007" y="187" fill="#000000" font-size="18" font-family="Arial" > JQ041646.1 Halophila beccarii</text>
<polyline points="1982,147 1982,179 2001,179" fill="none" stroke="#000000" stroke-width="1" stroke-linecap="square"/>
<polyline points="1938,192 1938,146 1982,146" fill="none" stroke="#000000" stroke-width="1" stroke-linecap="square"/>
<text x="2093" y="211" fill="#000000" font-size="18" font-family="Arial" > AF168878.1 Thalassia testudinum</text>
<polyline points="1961,215 1961,203 2087,203" fill="none" stroke="#000000" stroke-width="1" stroke-linecap="square"/>
<text x="2006" y="235" fill="#000000" font-size="18" font-family="Arial" > JQ041656.1 Thalassia hemprichii</text>
<polyline points="1961,216 1961,227 2000,227" fill="none" stroke="#000000" stroke-width="1" stroke-linecap="square"/>
<polyline points="1946,239 1946,215 1961,215" fill="none" stroke="#000000" stroke-width="1" stroke-linecap="square"/>
<text x="1974" y="259" fill="#000000" font-size="18" font-family="Arial" > AY952403.1 Enhalus acoroides</text>
<polyline points="1968,263 1968,251 1968,251" fill="none" stroke="#000000" stroke-width="1" stroke-linecap="square"/>
<text x="1993" y="283" fill="#000000" font-size="18" font-family="Arial" > JQ041644.1 Enhalus acoroides</text>
<polyline points="1968,264 1968,275 1987,275" fill="none" stroke="#000000" stroke-width="1" stroke-linecap="square"/>
<polyline points="1946,240 1946,263 1968,263" fill="none" stroke="#000000" stroke-width="1" stroke-linecap="square"/>
<polyline points="1938,193 1938,239 1946,239" fill="none" stroke="#000000" stroke-width="1" stroke-linecap="square"/>
<polyline points="1918,245 1918,192 1938,192" fill="none" stroke="#000000" stroke-width="1" stroke-linecap="square"/>
<text x="1982" y="307" fill="#000000" font-size="18" font-family="Arial" > AY952398.1 Hydrocharis dubia</text>
<polyline points="1918,246 1918,299 1976,299" fill="none" stroke="#000000" stroke-width="1" stroke-linecap="square"/>
<polyline points="1907,290 1907,245 1918,245" fill="none" stroke="#000000" stroke-width="1" stroke-linecap="square"/>
<text x="1990" y="331" fill="#000000" font-size="18" font-family="Arial" > EF526335.1 Najas guadalupensis</text>
<polyline points="1984,335 1984,323 1984,323" fill="none" stroke="#000000" stroke-width="1" stroke-linecap="square"/>
<text x="1990" y="355" fill="#000000" font-size="18" font-family="Arial" > EF526347.1 Najas minor</text>
<polyline points="1984,336 1984,347 1984,347" fill="none" stroke="#000000" stroke-width="1" stroke-linecap="square"/>
<polyline points="1907,291 1907,335 1984,335" fill="none" stroke="#000000" stroke-width="1" stroke-linecap="square"/>
<polyline points="1887,336 1887,290 1907,290" fill="none" stroke="#000000" stroke-width="1" stroke-linecap="square"/>
<text x="2003" y="379" fill="#000000" font-size="18" font-family="Arial" > AF069201.1 Vallisneria americana</text>
<polyline points="1997,383 1997,371 1997,371" fill="none" stroke="#000000" stroke-width="1" stroke-linecap="square"/>
<text x="2003" y="403" fill="#000000" font-size="18" font-family="Arial" > AY952384.1 Vallisneria asiatica</text>
<polyline points="1997,384 1997,395 1997,395" fill="none" stroke="#000000" stroke-width="1" stroke-linecap="square"/>
<polyline points="1887,337 1887,383 1997,383" fill="none" stroke="#000000" stroke-width="1" stroke-linecap="square"/>
<polyline points="1854,377 1854,336 1887,336" fill="none" stroke="#000000" stroke-width="1" stroke-linecap="square"/>
<text x="1918" y="427" fill="#000000" font-size="18" font-family="Arial" > AY952399.1 Hydrilla verticillata</text>
<polyline points="1854,378 1854,419 1912,419" fill="none" stroke="#000000" stroke-width="1" stroke-linecap="square"/>
<polyline points="1575,427 1575,377 1854,377" fill="none" stroke="#000000" stroke-width="1" stroke-linecap="square"/>
<text x="1815" y="451" fill="#000000" font-size="18" font-family="Arial" > JN034103.1 Ruppia maritima</text>
<polyline points="1595,477 1595,443 1809,443" fill="none" stroke="#000000" stroke-width="1" stroke-linecap="square"/>
<text x="1689" y="475" fill="#000000" font-size="18" font-family="Arial" > HQ660595.1 Phyllospadix iwatensis</text>
<polyline points="1664,512 1664,467 1683,467" fill="none" stroke="#000000" stroke-width="1" stroke-linecap="square"/>
<text x="1719" y="499" fill="#000000" font-size="18" font-family="Arial" > JQ041650.1 Zostera noltii</text>
<polyline points="1713,503 1713,491 1713,491" fill="none" stroke="#000000" stroke-width="1" stroke-linecap="square"/>
<text x="1719" y="523" fill="#000000" font-size="18" font-family="Arial" > JQ041651.1 Zostera noltii</text>
<polyline points="1713,504 1713,515 1713,515" fill="none" stroke="#000000" stroke-width="1" stroke-linecap="square"/>
<text x="1729" y="547" fill="#000000" font-size="18" font-family="Arial" > AF207058.1 Zostera noltii</text>
<polyline points="1713,551 1713,539 1723,539" fill="none" stroke="#000000" stroke-width="1" stroke-linecap="square"/>
<text x="1729" y="571" fill="#000000" font-size="18" font-family="Arial" > AY952401.1 Halodule uninervis</text>
<polyline points="1713,552 1713,563 1723,563" fill="none" stroke="#000000" stroke-width="1" stroke-linecap="square"/>
<text x="1757" y="595" fill="#000000" font-size="18" font-family="Arial" > JQ041648.1 Zostera marina</text>
<polyline points="1732,623 1732,587 1751,587" fill="none" stroke="#000000" stroke-width="1" stroke-linecap="square"/>
<text x="1757" y="619" fill="#000000" font-size="18" font-family="Arial" > JQ041647.1 Zostera marina</text>
<polyline points="1732,635 1732,611 1751,611" fill="none" stroke="#000000" stroke-width="1" stroke-linecap="square"/>
<text x="1738" y="643" fill="#000000" font-size="18" font-family="Arial" > HQ445940.1 Zostera marina</text>
<polyline points="1732,647 1732,635 1732,635" fill="none" stroke="#000000" stroke-width="1" stroke-linecap="square"/>
<text x="1738" y="667" fill="#000000" font-size="18" font-family="Arial" > JQ041649.1 Zostera marina</text>
<polyline points="1732,648 1732,659 1732,659" fill="none" stroke="#000000" stroke-width="1" stroke-linecap="square"/>
<line x1="1732" y1="623" x2="1732" y2="659" stroke="#000000" stroke-width="1" stroke-linecap="square"/>
<polyline points="1713,582 1713,623 1732,623" fill="none" stroke="#000000" stroke-width="1" stroke-linecap="square"/>
<line x1="1713" y1="492" x2="1713" y2="559" stroke="#000000" stroke-width="1" stroke-linecap="square"/>
<line x1="1713" y1="557" x2="1713" y2="623" stroke="#000000" stroke-width="1" stroke-linecap="square"/>
<polyline points="1664,513 1664,557 1713,557" fill="none" stroke="#000000" stroke-width="1" stroke-linecap="square"/>
<polyline points="1595,478 1595,512 1664,512" fill="none" stroke="#000000" stroke-width="1" stroke-linecap="square"/>
<polyline points="1575,428 1575,477 1595,477" fill="none" stroke="#000000" stroke-width="1" stroke-linecap="square"/>
<polyline points="1561,576 1561,427 1575,427" fill="none" stroke="#000000" stroke-width="1" stroke-linecap="square"/>
<text x="1737" y="691" fill="#000000" font-size="18" font-family="Arial" > AY491942.1 Posidonia oceanica</text>
<polyline points="1644,695 1644,683 1731,683" fill="none" stroke="#000000" stroke-width="1" stroke-linecap="square"/>
<text x="1699" y="715" fill="#000000" font-size="18" font-family="Arial" > GQ497582.1 Posidonia australis</text>
<polyline points="1644,696 1644,707 1693,707" fill="none" stroke="#000000" stroke-width="1" stroke-linecap="square"/>
<polyline points="1581,725 1581,695 1644,695" fill="none" stroke="#000000" stroke-width="1" stroke-linecap="square"/>
<text x="1845" y="739" fill="#000000" font-size="18" font-family="Arial" > AF168883.1 Zannichellia palustris</text>
<polyline points="1800,755 1800,731 1839,731" fill="none" stroke="#000000" stroke-width="1" stroke-linecap="square"/>
<text x="1832" y="763" fill="#000000" font-size="18" font-family="Arial" > EF526353.1 Potamogeton pusillus</text>
<polyline points="1826,779 1826,755 1826,755" fill="none" stroke="#000000" stroke-width="1" stroke-linecap="square"/>
<text x="1832" y="787" fill="#000000" font-size="18" font-family="Arial" > EF526318.1 Potamogeton crispus</text>
<polyline points="1826,791 1826,779 1826,779" fill="none" stroke="#000000" stroke-width="1" stroke-linecap="square"/>
<text x="1832" y="811" fill="#000000" font-size="18" font-family="Arial" > EF526336.1 Potamogeton natans</text>
<polyline points="1826,792 1826,803 1826,803" fill="none" stroke="#000000" stroke-width="1" stroke-linecap="square"/>
<line x1="1826" y1="779" x2="1826" y2="803" stroke="#000000" stroke-width="1" stroke-linecap="square"/>
<polyline points="1800,756 1800,779 1826,779" fill="none" stroke="#000000" stroke-width="1" stroke-linecap="square"/>
<polyline points="1581,726 1581,755 1800,755" fill="none" stroke="#000000" stroke-width="1" stroke-linecap="square"/>
<polyline points="1561,577 1561,725 1581,725" fill="none" stroke="#000000" stroke-width="1" stroke-linecap="square"/>
<polyline points="1515,713 1515,576 1561,576" fill="none" stroke="#000000" stroke-width="1" stroke-linecap="square"/>
<text x="1638" y="835" fill="#000000" font-size="18" font-family="Arial" > JQ041657.1 Halodule uninervis</text>
<polyline points="1632,851 1632,827 1632,827" fill="none" stroke="#000000" stroke-width="1" stroke-linecap="square"/>
<text x="1648" y="859" fill="#000000" font-size="18" font-family="Arial" > JQ041645.1 Halodule pinifolia</text>
<polyline points="1632,863 1632,851 1642,851" fill="none" stroke="#000000" stroke-width="1" stroke-linecap="square"/>
<text x="1638" y="883" fill="#000000" font-size="18" font-family="Arial" > JQ041660.1 Halodule wrightii</text>
<polyline points="1632,864 1632,875 1632,875" fill="none" stroke="#000000" stroke-width="1" stroke-linecap="square"/>
<line x1="1632" y1="851" x2="1632" y2="875" stroke="#000000" stroke-width="1" stroke-linecap="square"/>
<polyline points="1515,714 1515,851 1632,851" fill="none" stroke="#000000" stroke-width="1" stroke-linecap="square"/>
<polyline points="1391,812 1391,713 1515,713" fill="none" stroke="#000000" stroke-width="1" stroke-linecap="square"/>
<text x="1477" y="907" fill="#000000" font-size="18" font-family="Arial" > AF168876.1 Syringodium filiforme</text>
<polyline points="1422,911 1422,899 1471,899" fill="none" stroke="#000000" stroke-width="1" stroke-linecap="square"/>
<text x="1457" y="931" fill="#000000" font-size="18" font-family="Arial" > JQ041653.1 Syringodium isoetifolium</text>
<polyline points="1422,912 1422,923 1451,923" fill="none" stroke="#000000" stroke-width="1" stroke-linecap="square"/>
<polyline points="1391,813 1391,911 1422,911" fill="none" stroke="#000000" stroke-width="1" stroke-linecap="square"/>
<polyline points="1365,879 1365,812 1391,812" fill="none" stroke="#000000" stroke-width="1" stroke-linecap="square"/>
<text x="1430" y="955" fill="#000000" font-size="18" font-family="Arial" > JQ041655.1 Cymodocea serrulata</text>
<polyline points="1365,880 1365,947 1424,947" fill="none" stroke="#000000" stroke-width="1" stroke-linecap="square"/>
<polyline points="1358,925 1358,879 1365,879" fill="none" stroke="#000000" stroke-width="1" stroke-linecap="square"/>
<text x="1417" y="979" fill="#000000" font-size="18" font-family="Arial" > JQ041654.1 Cymodocea rotundata</text>
<polyline points="1358,926 1358,971 1411,971" fill="none" stroke="#000000" stroke-width="1" stroke-linecap="square"/>
<polyline points="40,960 40,925 1358,925" fill="none" stroke="#000000" stroke-width="1" stroke-linecap="square"/>
<text x="2094" y="1003" fill="#000000" font-size="18" font-family="Arial" > JX446578.1 Salicornia bigelovii</text>
<polyline points="40,961 40,995 2088,995" fill="none" stroke="#000000" stroke-width="1" stroke-linecap="square"/>
<text x="1970" y="402" fill="#000000" font-size="15" font-family="Arial" >100</text>
<text x="1403" y="930" fill="#000000" font-size="15" font-family="Arial" >84</text>
<text x="1625" y="691" fill="#000000" font-size="15" font-family="Arial" >90</text>
<text x="1983" y="162" fill="#000000" font-size="15" font-family="Arial" >65</text>
<text x="1942" y="211" fill="#000000" font-size="15" font-family="Arial" >63</text>
<text x="1957" y="354" fill="#000000" font-size="15" font-family="Arial" >100</text>
<text x="1949" y="282" fill="#000000" font-size="15" font-family="Arial" >94</text>
<text x="1613" y="870" fill="#000000" font-size="15" font-family="Arial" >99</text>
<text x="1983" y="79" fill="#000000" font-size="15" font-family="Arial" >52</text>
<text x="1963" y="142" fill="#000000" font-size="15" font-family="Arial" >92</text>
<text x="1496" y="709" fill="#000000" font-size="15" font-family="Arial" >60</text>
<text x="1807" y="798" fill="#000000" font-size="15" font-family="Arial" >97</text>
<text x="1781" y="774" fill="#000000" font-size="15" font-family="Arial" >98</text>
<text x="1713" y="642" fill="#000000" font-size="15" font-family="Arial" >85</text>
<text x="1868" y="332" fill="#000000" font-size="15" font-family="Arial" >58</text>
<text x="1694" y="576" fill="#000000" font-size="15" font-family="Arial" >98</text>
<text x="1645" y="531" fill="#000000" font-size="15" font-family="Arial" >96</text>
<text x="1835" y="373" fill="#000000" font-size="15" font-family="Arial" >99</text>
<text x="1888" y="286" fill="#000000" font-size="15" font-family="Arial" >50</text>
<line x1="60" y1="1032" x2="334" y2="1032" stroke="#000000" stroke-width="1" stroke-linecap="square"/>
<line x1="60" y1="1028" x2="60" y2="1036" stroke="#000000" stroke-width="1" stroke-linecap="square"/>
<line x1="334" y1="1028" x2="334" y2="1036" stroke="#000000" stroke-width="1" stroke-linecap="square"/>
<text x="186" y="1066" fill="#000000" font-size="15" font-family="Arial" >0.02</text>
</svg>
