<svg xmlns="http://www.w3.org/2000/svg" xmlns:xlink="http://www.w3.org/1999/xlink" version="1.1" width="852" height="1016" name="GTRGI_tree_bootstrap.svg" y="0" viewBox="0 0 852 1016">
<polyline points="852,1016 0,1016 0,0 852,0 852,1016" fill="white" />
<text x="361" y="43" fill="#000000" font-size="18" font-family="Arial" > JQ041658.1 Halophila ovalis</text>
<polyline points="320,47 320,35 355,35" fill="none" stroke="#000000" stroke-width="1" stroke-linecap="square"/>
<text x="361" y="67" fill="#000000" font-size="18" font-family="Arial" > JQ041659.1 Halophila minor</text>
<polyline points="320,48 320,59 355,59" fill="none" stroke="#000000" stroke-width="1" stroke-linecap="square"/>
<text x="361" y="91" fill="#000000" font-size="18" font-family="Arial" > JQ041652.1 Halophila ovalis subsp. ramamurthiana from</text>
<polyline points="320,60 320,83 355,83" fill="none" stroke="#000000" stroke-width="1" stroke-linecap="square"/>
<text x="361" y="115" fill="#000000" font-size="18" font-family="Arial" > AY952400.1 Halophila ovalis</text>
<polyline points="320,72 320,107 355,107" fill="none" stroke="#000000" stroke-width="1" stroke-linecap="square"/>
<line x1="320" y1="36" x2="320" y2="73" stroke="#000000" stroke-width="1" stroke-linecap="square"/>
<polyline points="285,107 285,71 320,71" fill="none" stroke="#000000" stroke-width="1" stroke-linecap="square"/>
<text x="361" y="139" fill="#000000" font-size="18" font-family="Arial" > JQ041643.1 Halophila stipulacea</text>
<polyline points="320,143 320,131 355,131" fill="none" stroke="#000000" stroke-width="1" stroke-linecap="square"/>
<text x="361" y="163" fill="#000000" font-size="18" font-family="Arial" > JQ041661.1 Halophila decipiens</text>
<polyline points="320,144 320,155 355,155" fill="none" stroke="#000000" stroke-width="1" stroke-linecap="square"/>
<polyline points="285,108 285,143 320,143" fill="none" stroke="#000000" stroke-width="1" stroke-linecap="square"/>
<text x="361" y="187" fill="#000000" font-size="18" font-family="Arial" > JQ041646.1 Halophila beccarii</text>
<polyline points="285,126 285,179 355,179" fill="none" stroke="#000000" stroke-width="1" stroke-linecap="square"/>
<line x1="285" y1="72" x2="285" y2="127" stroke="#000000" stroke-width="1" stroke-linecap="square"/>
<polyline points="250,194 250,125 285,125" fill="none" stroke="#000000" stroke-width="1" stroke-linecap="square"/>
<text x="361" y="211" fill="#000000" font-size="18" font-family="Arial" > AF168878.1 Thalassia testudinum</text>
<polyline points="320,215 320,203 355,203" fill="none" stroke="#000000" stroke-width="1" stroke-linecap="square"/>
<text x="361" y="235" fill="#000000" font-size="18" font-family="Arial" > JQ041656.1 Thalassia hemprichii</text>
<polyline points="320,216 320,227 355,227" fill="none" stroke="#000000" stroke-width="1" stroke-linecap="square"/>
<polyline points="250,239 250,215 320,215" fill="none" stroke="#000000" stroke-width="1" stroke-linecap="square"/>
<text x="361" y="259" fill="#000000" font-size="18" font-family="Arial" > AY952403.1 Enhalus acoroides</text>
<polyline points="320,263 320,251 355,251" fill="none" stroke="#000000" stroke-width="1" stroke-linecap="square"/>
<text x="361" y="283" fill="#000000" font-size="18" font-family="Arial" > JQ041644.1 Enhalus acoroides</text>
<polyline points="320,264 320,275 355,275" fill="none" stroke="#000000" stroke-width="1" stroke-linecap="square"/>
<polyline points="250,240 250,263 320,263" fill="none" stroke="#000000" stroke-width="1" stroke-linecap="square"/>
<text x="361" y="307" fill="#000000" font-size="18" font-family="Arial" > AY952398.1 Hydrocharis dubia</text>
<polyline points="250,213 250,299 355,299" fill="none" stroke="#000000" stroke-width="1" stroke-linecap="square"/>
<text x="361" y="331" fill="#000000" font-size="18" font-family="Arial" > EF526335.1 Najas guadalupensis</text>
<polyline points="320,335 320,323 355,323" fill="none" stroke="#000000" stroke-width="1" stroke-linecap="square"/>
<text x="361" y="355" fill="#000000" font-size="18" font-family="Arial" > EF526347.1 Najas minor</text>
<polyline points="320,336 320,347 355,347" fill="none" stroke="#000000" stroke-width="1" stroke-linecap="square"/>
<polyline points="250,231 250,335 320,335" fill="none" stroke="#000000" stroke-width="1" stroke-linecap="square"/>
<line x1="250" y1="126" x2="250" y2="232" stroke="#000000" stroke-width="1" stroke-linecap="square"/>
<polyline points="215,306 215,230 250,230" fill="none" stroke="#000000" stroke-width="1" stroke-linecap="square"/>
<text x="361" y="379" fill="#000000" font-size="18" font-family="Arial" > AF069201.1 Vallisneria americana</text>
<polyline points="320,383 320,371 355,371" fill="none" stroke="#000000" stroke-width="1" stroke-linecap="square"/>
<text x="361" y="403" fill="#000000" font-size="18" font-family="Arial" > AY952384.1 Vallisneria asiatica</text>
<polyline points="320,384 320,395 355,395" fill="none" stroke="#000000" stroke-width="1" stroke-linecap="square"/>
<polyline points="215,307 215,383 320,383" fill="none" stroke="#000000" stroke-width="1" stroke-linecap="square"/>
<polyline points="180,362 180,306 215,306" fill="none" stroke="#000000" stroke-width="1" stroke-linecap="square"/>
<text x="361" y="427" fill="#000000" font-size="18" font-family="Arial" > AY952399.1 Hydrilla verticillata</text>
<polyline points="180,363 180,419 355,419" fill="none" stroke="#000000" stroke-width="1" stroke-linecap="square"/>
<polyline points="145,534 145,362 180,362" fill="none" stroke="#000000" stroke-width="1" stroke-linecap="square"/>
<text x="361" y="451" fill="#000000" font-size="18" font-family="Arial" > AF168876.1 Syringodium filiforme</text>
<polyline points="320,455 320,443 355,443" fill="none" stroke="#000000" stroke-width="1" stroke-linecap="square"/>
<text x="361" y="475" fill="#000000" font-size="18" font-family="Arial" > JQ041653.1 Syringodium isoetifolium</text>
<polyline points="320,456 320,467 355,467" fill="none" stroke="#000000" stroke-width="1" stroke-linecap="square"/>
<polyline points="285,485 285,455 320,455" fill="none" stroke="#000000" stroke-width="1" stroke-linecap="square"/>
<text x="361" y="499" fill="#000000" font-size="18" font-family="Arial" > JQ041654.1 Cymodocea rotundata</text>
<polyline points="285,503 285,491 355,491" fill="none" stroke="#000000" stroke-width="1" stroke-linecap="square"/>
<text x="361" y="523" fill="#000000" font-size="18" font-family="Arial" > JQ041655.1 Cymodocea serrulata</text>
<polyline points="285,504 285,515 355,515" fill="none" stroke="#000000" stroke-width="1" stroke-linecap="square"/>
<line x1="285" y1="485" x2="285" y2="515" stroke="#000000" stroke-width="1" stroke-linecap="square"/>
<polyline points="250,512 250,485 285,485" fill="none" stroke="#000000" stroke-width="1" stroke-linecap="square"/>
<text x="361" y="547" fill="#000000" font-size="18" font-family="Arial" > JX446578.1 Salicornia bigelovii</text>
<polyline points="250,513 250,539 355,539" fill="none" stroke="#000000" stroke-width="1" stroke-linecap="square"/>
<polyline points="145,609 145,512 250,512" fill="none" stroke="#000000" stroke-width="1" stroke-linecap="square"/>
<text x="361" y="571" fill="#000000" font-size="18" font-family="Arial" > AY491942.1 Posidonia oceanica</text>
<polyline points="320,575 320,563 355,563" fill="none" stroke="#000000" stroke-width="1" stroke-linecap="square"/>
<text x="361" y="595" fill="#000000" font-size="18" font-family="Arial" > GQ497582.1 Posidonia australis</text>
<polyline points="320,576 320,587 355,587" fill="none" stroke="#000000" stroke-width="1" stroke-linecap="square"/>
<polyline points="145,641 145,575 320,575" fill="none" stroke="#000000" stroke-width="1" stroke-linecap="square"/>
<text x="361" y="619" fill="#000000" font-size="18" font-family="Arial" > JQ041657.1 Halodule uninervis</text>
<polyline points="320,623 320,611 355,611" fill="none" stroke="#000000" stroke-width="1" stroke-linecap="square"/>
<text x="361" y="643" fill="#000000" font-size="18" font-family="Arial" > JQ041660.1 Halodule wrightii</text>
<polyline points="320,624 320,635 355,635" fill="none" stroke="#000000" stroke-width="1" stroke-linecap="square"/>
<polyline points="285,641 285,623 320,623" fill="none" stroke="#000000" stroke-width="1" stroke-linecap="square"/>
<text x="361" y="667" fill="#000000" font-size="18" font-family="Arial" > JQ041645.1 Halodule pinifolia</text>
<polyline points="285,642 285,659 355,659" fill="none" stroke="#000000" stroke-width="1" stroke-linecap="square"/>
<polyline points="145,674 145,641 285,641" fill="none" stroke="#000000" stroke-width="1" stroke-linecap="square"/>
<text x="361" y="691" fill="#000000" font-size="18" font-family="Arial" > AF168883.1 Zannichellia palustris</text>
<polyline points="285,707 285,683 355,683" fill="none" stroke="#000000" stroke-width="1" stroke-linecap="square"/>
<text x="361" y="715" fill="#000000" font-size="18" font-family="Arial" > EF526353.1 Potamogeton pusillus</text>
<polyline points="320,731 320,707 355,707" fill="none" stroke="#000000" stroke-width="1" stroke-linecap="square"/>
<text x="361" y="739" fill="#000000" font-size="18" font-family="Arial" > EF526318.1 Potamogeton crispus</text>
<polyline points="320,743 320,731 355,731" fill="none" stroke="#000000" stroke-width="1" stroke-linecap="square"/>
<text x="361" y="763" fill="#000000" font-size="18" font-family="Arial" > EF526336.1 Potamogeton natans</text>
<polyline points="320,744 320,755 355,755" fill="none" stroke="#000000" stroke-width="1" stroke-linecap="square"/>
<line x1="320" y1="731" x2="320" y2="755" stroke="#000000" stroke-width="1" stroke-linecap="square"/>
<polyline points="285,708 285,731 320,731" fill="none" stroke="#000000" stroke-width="1" stroke-linecap="square"/>
<polyline points="145,675 145,707 285,707" fill="none" stroke="#000000" stroke-width="1" stroke-linecap="square"/>
<text x="361" y="787" fill="#000000" font-size="18" font-family="Arial" > JN034103.1 Ruppia maritima</text>
<polyline points="145,571 145,779 355,779" fill="none" stroke="#000000" stroke-width="1" stroke-linecap="square"/>
<line x1="145" y1="363" x2="145" y2="572" stroke="#000000" stroke-width="1" stroke-linecap="square"/>
<polyline points="110,686 110,570 145,570" fill="none" stroke="#000000" stroke-width="1" stroke-linecap="square"/>
<text x="361" y="811" fill="#000000" font-size="18" font-family="Arial" > HQ660595.1 Phyllospadix iwatensis</text>
<polyline points="110,687 110,803 355,803" fill="none" stroke="#000000" stroke-width="1" stroke-linecap="square"/>
<polyline points="75,756 75,686 110,686" fill="none" stroke="#000000" stroke-width="1" stroke-linecap="square"/>
<text x="361" y="835" fill="#000000" font-size="18" font-family="Arial" > AF207058.1 Zostera noltii</text>
<polyline points="75,757 75,827 355,827" fill="none" stroke="#000000" stroke-width="1" stroke-linecap="square"/>
<text x="361" y="859" fill="#000000" font-size="18" font-family="Arial" > AY952401.1 Halodule uninervis</text>
<polyline points="75,875 75,851 355,851" fill="none" stroke="#000000" stroke-width="1" stroke-linecap="square"/>
<text x="361" y="883" fill="#000000" font-size="18" font-family="Arial" > JQ041650.1 Zostera noltii</text>
<polyline points="75,887 75,875 355,875" fill="none" stroke="#000000" stroke-width="1" stroke-linecap="square"/>
<text x="361" y="907" fill="#000000" font-size="18" font-family="Arial" > JQ041651.1 Zostera noltii</text>
<polyline points="75,888 75,899 355,899" fill="none" stroke="#000000" stroke-width="1" stroke-linecap="square"/>
<line x1="75" y1="687" x2="75" y2="794" stroke="#000000" stroke-width="1" stroke-linecap="square"/>
<line x1="75" y1="792" x2="75" y2="899" stroke="#000000" stroke-width="1" stroke-linecap="square"/>
<polyline points="40,868 40,792 75,792" fill="none" stroke="#000000" stroke-width="1" stroke-linecap="square"/>
<text x="361" y="931" fill="#000000" font-size="18" font-family="Arial" > JQ041648.1 Zostera marina</text>
<polyline points="250,944 250,923 355,923" fill="none" stroke="#000000" stroke-width="1" stroke-linecap="square"/>
<text x="361" y="955" fill="#000000" font-size="18" font-family="Arial" > JQ041647.1 Zostera marina</text>
<polyline points="285,965 285,947 355,947" fill="none" stroke="#000000" stroke-width="1" stroke-linecap="square"/>
<text x="361" y="979" fill="#000000" font-size="18" font-family="Arial" > HQ445940.1 Zostera marina</text>
<polyline points="320,983 320,971 355,971" fill="none" stroke="#000000" stroke-width="1" stroke-linecap="square"/>
<text x="361" y="1003" fill="#000000" font-size="18" font-family="Arial" > JQ041649.1 Zostera marina</text>
<polyline points="320,984 320,995 355,995" fill="none" stroke="#000000" stroke-width="1" stroke-linecap="square"/>
<polyline points="285,966 285,983 320,983" fill="none" stroke="#000000" stroke-width="1" stroke-linecap="square"/>
<polyline points="250,945 250,965 285,965" fill="none" stroke="#000000" stroke-width="1" stroke-linecap="square"/>
<polyline points="40,869 40,944 250,944" fill="none" stroke="#000000" stroke-width="1" stroke-linecap="square"/>
<text x="293" y="354" fill="#000000" font-size="15" font-family="Arial" >100</text>
<text x="293" y="402" fill="#000000" font-size="15" font-family="Arial" >100</text>
<text x="301" y="282" fill="#000000" font-size="15" font-family="Arial" >94</text>
<text x="301" y="571" fill="#000000" font-size="15" font-family="Arial" >90</text>
<text x="301" y="451" fill="#000000" font-size="15" font-family="Arial" >84</text>
<text x="301" y="1002" fill="#000000" font-size="15" font-family="Arial" >81</text>
<text x="301" y="619" fill="#000000" font-size="15" font-family="Arial" >73</text>
<text x="266" y="637" fill="#000000" font-size="15" font-family="Arial" >99</text>
<text x="301" y="162" fill="#000000" font-size="15" font-family="Arial" >65</text>
<text x="301" y="211" fill="#000000" font-size="15" font-family="Arial" >63</text>
<text x="266" y="984" fill="#000000" font-size="15" font-family="Arial" >55</text>
<text x="231" y="963" fill="#000000" font-size="15" font-family="Arial" >85</text>
<text x="301" y="67" fill="#000000" font-size="15" font-family="Arial" >52</text>
<text x="266" y="121" fill="#000000" font-size="15" font-family="Arial" >92</text>
<text x="231" y="226" fill="#000000" font-size="15" font-family="Arial" >50</text>
<text x="196" y="302" fill="#000000" font-size="15" font-family="Arial" >58</text>
<text x="161" y="358" fill="#000000" font-size="15" font-family="Arial" >99</text>
<text x="266" y="481" fill="#000000" font-size="15" font-family="Arial" >58</text>
<text x="231" y="508" fill="#000000" font-size="15" font-family="Arial" >60</text>
<text x="301" y="750" fill="#000000" font-size="15" font-family="Arial" >97</text>
<text x="266" y="726" fill="#000000" font-size="15" font-family="Arial" >98</text>
<text x="126" y="566" fill="#000000" font-size="15" font-family="Arial" >96</text>
<text x="91" y="682" fill="#000000" font-size="15" font-family="Arial" >98</text>
<text x="361" y="43" fill="#000000" font-size="18" font-family="Arial" > JQ041658.1 Halophila ovalis</text>
<polyline points="320,47 320,35 355,35" fill="none" stroke="#000000" stroke-width="1" stroke-linecap="square"/>
<text x="361" y="67" fill="#000000" font-size="18" font-family="Arial" > JQ041659.1 Halophila minor</text>
<polyline points="320,48 320,59 355,59" fill="none" stroke="#000000" stroke-width="1" stroke-linecap="square"/>
<text x="361" y="91" fill="#000000" font-size="18" font-family="Arial" > JQ041652.1 Halophila ovalis subsp. ramamurthiana from</text>
<polyline points="320,60 320,83 355,83" fill="none" stroke="#000000" stroke-width="1" stroke-linecap="square"/>
<text x="361" y="115" fill="#000000" font-size="18" font-family="Arial" > AY952400.1 Halophila ovalis</text>
<polyline points="320,72 320,107 355,107" fill="none" stroke="#000000" stroke-width="1" stroke-linecap="square"/>
<line x1="320" y1="36" x2="320" y2="73" stroke="#000000" stroke-width="1" stroke-linecap="square"/>
<polyline points="285,107 285,71 320,71" fill="none" stroke="#000000" stroke-width="1" stroke-linecap="square"/>
<text x="361" y="139" fill="#000000" font-size="18" font-family="Arial" > JQ041643.1 Halophila stipulacea</text>
<polyline points="320,143 320,131 355,131" fill="none" stroke="#000000" stroke-width="1" stroke-linecap="square"/>
<text x="361" y="163" fill="#000000" font-size="18" font-family="Arial" > JQ041661.1 Halophila decipiens</text>
<polyline points="320,144 320,155 355,155" fill="none" stroke="#000000" stroke-width="1" stroke-linecap="square"/>
<polyline points="285,108 285,143 320,143" fill="none" stroke="#000000" stroke-width="1" stroke-linecap="square"/>
<text x="361" y="187" fill="#000000" font-size="18" font-family="Arial" > JQ041646.1 Halophila beccarii</text>
<polyline points="285,126 285,179 355,179" fill="none" stroke="#000000" stroke-width="1" stroke-linecap="square"/>
<line x1="285" y1="72" x2="285" y2="127" stroke="#000000" stroke-width="1" stroke-linecap="square"/>
<polyline points="250,194 250,125 285,125" fill="none" stroke="#000000" stroke-width="1" stroke-linecap="square"/>
<text x="361" y="211" fill="#000000" font-size="18" font-family="Arial" > AF168878.1 Thalassia testudinum</text>
<polyline points="320,215 320,203 355,203" fill="none" stroke="#000000" stroke-width="1" stroke-linecap="square"/>
<text x="361" y="235" fill="#000000" font-size="18" font-family="Arial" > JQ041656.1 Thalassia hemprichii</text>
<polyline points="320,216 320,227 355,227" fill="none" stroke="#000000" stroke-width="1" stroke-linecap="square"/>
<polyline points="250,239 250,215 320,215" fill="none" stroke="#000000" stroke-width="1" stroke-linecap="square"/>
<text x="361" y="259" fill="#000000" font-size="18" font-family="Arial" > AY952403.1 Enhalus acoroides</text>
<polyline points="320,263 320,251 355,251" fill="none" stroke="#000000" stroke-width="1" stroke-linecap="square"/>
<text x="361" y="283" fill="#000000" font-size="18" font-family="Arial" > JQ041644.1 Enhalus acoroides</text>
<polyline points="320,264 320,275 355,275" fill="none" stroke="#000000" stroke-width="1" stroke-linecap="square"/>
<polyline points="250,240 250,263 320,263" fill="none" stroke="#000000" stroke-width="1" stroke-linecap="square"/>
<text x="361" y="307" fill="#000000" font-size="18" font-family="Arial" > AY952398.1 Hydrocharis dubia</text>
<polyline points="250,213 250,299 355,299" fill="none" stroke="#000000" stroke-width="1" stroke-linecap="square"/>
<text x="361" y="331" fill="#000000" font-size="18" font-family="Arial" > EF526335.1 Najas guadalupensis</text>
<polyline points="320,335 320,323 355,323" fill="none" stroke="#000000" stroke-width="1" stroke-linecap="square"/>
<text x="361" y="355" fill="#000000" font-size="18" font-family="Arial" > EF526347.1 Najas minor</text>
<polyline points="320,336 320,347 355,347" fill="none" stroke="#000000" stroke-width="1" stroke-linecap="square"/>
<polyline points="250,231 250,335 320,335" fill="none" stroke="#000000" stroke-width="1" stroke-linecap="square"/>
<line x1="250" y1="126" x2="250" y2="232" stroke="#000000" stroke-width="1" stroke-linecap="square"/>
<polyline points="215,306 215,230 250,230" fill="none" stroke="#000000" stroke-width="1" stroke-linecap="square"/>
<text x="361" y="379" fill="#000000" font-size="18" font-family="Arial" > AF069201.1 Vallisneria americana</text>
<polyline points="320,383 320,371 355,371" fill="none" stroke="#000000" stroke-width="1" stroke-linecap="square"/>
<text x="361" y="403" fill="#000000" font-size="18" font-family="Arial" > AY952384.1 Vallisneria asiatica</text>
<polyline points="320,384 320,395 355,395" fill="none" stroke="#000000" stroke-width="1" stroke-linecap="square"/>
<polyline points="215,307 215,383 320,383" fill="none" stroke="#000000" stroke-width="1" stroke-linecap="square"/>
<polyline points="180,362 180,306 215,306" fill="none" stroke="#000000" stroke-width="1" stroke-linecap="square"/>
<text x="361" y="427" fill="#000000" font-size="18" font-family="Arial" > AY952399.1 Hydrilla verticillata</text>
<polyline points="180,363 180,419 355,419" fill="none" stroke="#000000" stroke-width="1" stroke-linecap="square"/>
<polyline points="145,534 145,362 180,362" fill="none" stroke="#000000" stroke-width="1" stroke-linecap="square"/>
<text x="361" y="451" fill="#000000" font-size="18" font-family="Arial" > AF168876.1 Syringodium filiforme</text>
<polyline points="320,455 320,443 355,443" fill="none" stroke="#000000" stroke-width="1" stroke-linecap="square"/>
<text x="361" y="475" fill="#000000" font-size="18" font-family="Arial" > JQ041653.1 Syringodium isoetifolium</text>
<polyline points="320,456 320,467 355,467" fill="none" stroke="#000000" stroke-width="1" stroke-linecap="square"/>
<polyline points="285,485 285,455 320,455" fill="none" stroke="#000000" stroke-width="1" stroke-linecap="square"/>
<text x="361" y="499" fill="#000000" font-size="18" font-family="Arial" > JQ041654.1 Cymodocea rotundata</text>
<polyline points="285,503 285,491 355,491" fill="none" stroke="#000000" stroke-width="1" stroke-linecap="square"/>
<text x="361" y="523" fill="#000000" font-size="18" font-family="Arial" > JQ041655.1 Cymodocea serrulata</text>
<polyline points="285,504 285,515 355,515" fill="none" stroke="#000000" stroke-width="1" stroke-linecap="square"/>
<line x1="285" y1="485" x2="285" y2="515" stroke="#000000" stroke-width="1" stroke-linecap="square"/>
<polyline points="250,512 250,485 285,485" fill="none" stroke="#000000" stroke-width="1" stroke-linecap="square"/>
<text x="361" y="547" fill="#000000" font-size="18" font-family="Arial" > JX446578.1 Salicornia bigelovii</text>
<polyline points="250,513 250,539 355,539" fill="none" stroke="#000000" stroke-width="1" stroke-linecap="square"/>
<polyline points="145,609 145,512 250,512" fill="none" stroke="#000000" stroke-width="1" stroke-linecap="square"/>
<text x="361" y="571" fill="#000000" font-size="18" font-family="Arial" > AY491942.1 Posidonia oceanica</text>
<polyline points="320,575 320,563 355,563" fill="none" stroke="#000000" stroke-width="1" stroke-linecap="square"/>
<text x="361" y="595" fill="#000000" font-size="18" font-family="Arial" > GQ497582.1 Posidonia australis</text>
<polyline points="320,576 320,587 355,587" fill="none" stroke="#000000" stroke-width="1" stroke-linecap="square"/>
<polyline points="145,641 145,575 320,575" fill="none" stroke="#000000" stroke-width="1" stroke-linecap="square"/>
<text x="361" y="619" fill="#000000" font-size="18" font-family="Arial" > JQ041657.1 Halodule uninervis</text>
<polyline points="320,623 320,611 355,611" fill="none" stroke="#000000" stroke-width="1" stroke-linecap="square"/>
<text x="361" y="643" fill="#000000" font-size="18" font-family="Arial" > JQ041660.1 Halodule wrightii</text>
<polyline points="320,624 320,635 355,635" fill="none" stroke="#000000" stroke-width="1" stroke-linecap="square"/>
<polyline points="285,641 285,623 320,623" fill="none" stroke="#000000" stroke-width="1" stroke-linecap="square"/>
<text x="361" y="667" fill="#000000" font-size="18" font-family="Arial" > JQ041645.1 Halodule pinifolia</text>
<polyline points="285,642 285,659 355,659" fill="none" stroke="#000000" stroke-width="1" stroke-linecap="square"/>
<polyline points="145,674 145,641 285,641" fill="none" stroke="#000000" stroke-width="1" stroke-linecap="square"/>
<text x="361" y="691" fill="#000000" font-size="18" font-family="Arial" > AF168883.1 Zannichellia palustris</text>
<polyline points="285,707 285,683 355,683" fill="none" stroke="#000000" stroke-width="1" stroke-linecap="square"/>
<text x="361" y="715" fill="#000000" font-size="18" font-family="Arial" > EF526353.1 Potamogeton pusillus</text>
<polyline points="320,731 320,707 355,707" fill="none" stroke="#000000" stroke-width="1" stroke-linecap="square"/>
<text x="361" y="739" fill="#000000" font-size="18" font-family="Arial" > EF526318.1 Potamogeton crispus</text>
<polyline points="320,743 320,731 355,731" fill="none" stroke="#000000" stroke-width="1" stroke-linecap="square"/>
<text x="361" y="763" fill="#000000" font-size="18" font-family="Arial" > EF526336.1 Potamogeton natans</text>
<polyline points="320,744 320,755 355,755" fill="none" stroke="#000000" stroke-width="1" stroke-linecap="square"/>
<line x1="320" y1="731" x2="320" y2="755" stroke="#000000" stroke-width="1" stroke-linecap="square"/>
<polyline points="285,708 285,731 320,731" fill="none" stroke="#000000" stroke-width="1" stroke-linecap="square"/>
<polyline points="145,675 145,707 285,707" fill="none" stroke="#000000" stroke-width="1" stroke-linecap="square"/>
<text x="361" y="787" fill="#000000" font-size="18" font-family="Arial" > JN034103.1 Ruppia maritima</text>
<polyline points="145,571 145,779 355,779" fill="none" stroke="#000000" stroke-width="1" stroke-linecap="square"/>
<line x1="145" y1="363" x2="145" y2="572" stroke="#000000" stroke-width="1" stroke-linecap="square"/>
<polyline points="110,686 110,570 145,570" fill="none" stroke="#000000" stroke-width="1" stroke-linecap="square"/>
<text x="361" y="811" fill="#000000" font-size="18" font-family="Arial" > HQ660595.1 Phyllospadix iwatensis</text>
<polyline points="110,687 110,803 355,803" fill="none" stroke="#000000" stroke-width="1" stroke-linecap="square"/>
<polyline points="75,756 75,686 110,686" fill="none" stroke="#000000" stroke-width="1" stroke-linecap="square"/>
<text x="361" y="835" fill="#000000" font-size="18" font-family="Arial" > AF207058.1 Zostera noltii</text>
<polyline points="75,757 75,827 355,827" fill="none" stroke="#000000" stroke-width="1" stroke-linecap="square"/>
<text x="361" y="859" fill="#000000" font-size="18" font-family="Arial" > AY952401.1 Halodule uninervis</text>
<polyline points="75,875 75,851 355,851" fill="none" stroke="#000000" stroke-width="1" stroke-linecap="square"/>
<text x="361" y="883" fill="#000000" font-size="18" font-family="Arial" > JQ041650.1 Zostera noltii</text>
<polyline points="75,887 75,875 355,875" fill="none" stroke="#000000" stroke-width="1" stroke-linecap="square"/>
<text x="361" y="907" fill="#000000" font-size="18" font-family="Arial" > JQ041651.1 Zostera noltii</text>
<polyline points="75,888 75,899 355,899" fill="none" stroke="#000000" stroke-width="1" stroke-linecap="square"/>
<line x1="75" y1="687" x2="75" y2="794" stroke="#000000" stroke-width="1" stroke-linecap="square"/>
<line x1="75" y1="792" x2="75" y2="899" stroke="#000000" stroke-width="1" stroke-linecap="square"/>
<polyline points="40,868 40,792 75,792" fill="none" stroke="#000000" stroke-width="1" stroke-linecap="square"/>
<text x="361" y="931" fill="#000000" font-size="18" font-family="Arial" > JQ041648.1 Zostera marina</text>
<polyline points="250,944 250,923 355,923" fill="none" stroke="#000000" stroke-width="1" stroke-linecap="square"/>
<text x="361" y="955" fill="#000000" font-size="18" font-family="Arial" > JQ041647.1 Zostera marina</text>
<polyline points="285,965 285,947 355,947" fill="none" stroke="#000000" stroke-width="1" stroke-linecap="square"/>
<text x="361" y="979" fill="#000000" font-size="18" font-family="Arial" > HQ445940.1 Zostera marina</text>
<polyline points="320,983 320,971 355,971" fill="none" stroke="#000000" stroke-width="1" stroke-linecap="square"/>
<text x="361" y="1003" fill="#000000" font-size="18" font-family="Arial" > JQ041649.1 Zostera marina</text>
<polyline points="320,984 320,995 355,995" fill="none" stroke="#000000" stroke-width="1" stroke-linecap="square"/>
<polyline points="285,966 285,983 320,983" fill="none" stroke="#000000" stroke-width="1" stroke-linecap="square"/>
<polyline points="250,945 250,965 285,965" fill="none" stroke="#000000" stroke-width="1" stroke-linecap="square"/>
<polyline points="40,869 40,944 250,944" fill="none" stroke="#000000" stroke-width="1" stroke-linecap="square"/>
<text x="293" y="354" fill="#000000" font-size="15" font-family="Arial" >100</text>
<text x="293" y="402" fill="#000000" font-size="15" font-family="Arial" >100</text>
<text x="301" y="282" fill="#000000" font-size="15" font-family="Arial" >94</text>
<text x="301" y="571" fill="#000000" font-size="15" font-family="Arial" >90</text>
<text x="301" y="451" fill="#000000" font-size="15" font-family="Arial" >84</text>
<text x="301" y="1002" fill="#000000" font-size="15" font-family="Arial" >81</text>
<text x="301" y="619" fill="#000000" font-size="15" font-family="Arial" >73</text>
<text x="266" y="637" fill="#000000" font-size="15" font-family="Arial" >99</text>
<text x="301" y="162" fill="#000000" font-size="15" font-family="Arial" >65</text>
<text x="301" y="211" fill="#000000" font-size="15" font-family="Arial" >63</text>
<text x="266" y="984" fill="#000000" font-size="15" font-family="Arial" >55</text>
<text x="231" y="963" fill="#000000" font-size="15" font-family="Arial" >85</text>
<text x="301" y="67" fill="#000000" font-size="15" font-family="Arial" >52</text>
<text x="266" y="121" fill="#000000" font-size="15" font-family="Arial" >92</text>
<text x="231" y="226" fill="#000000" font-size="15" font-family="Arial" >50</text>
<text x="196" y="302" fill="#000000" font-size="15" font-family="Arial" >58</text>
<text x="161" y="358" fill="#000000" font-size="15" font-family="Arial" >99</text>
<text x="266" y="481" fill="#000000" font-size="15" font-family="Arial" >58</text>
<text x="231" y="508" fill="#000000" font-size="15" font-family="Arial" >60</text>
<text x="301" y="750" fill="#000000" font-size="15" font-family="Arial" >97</text>
<text x="266" y="726" fill="#000000" font-size="15" font-family="Arial" >98</text>
<text x="126" y="566" fill="#000000" font-size="15" font-family="Arial" >96</text>
<text x="91" y="682" fill="#000000" font-size="15" font-family="Arial" >98</text>
</svg>
