<svg xmlns="http://www.w3.org/2000/svg" xmlns:xlink="http://www.w3.org/1999/xlink" version="1.1" width="772" height="1016" name="msa_tree_bootstrap.svg" y="0" viewBox="0 0 772 1016">
<polyline points="772,1016 0,1016 0,0 772,0 772,1016" fill="white" />
<polyline points="211,-295 211,-307 230,-307" fill="none" stroke="#000000" stroke-width="1" stroke-linecap="square"/>
<polyline points="211,-294 211,-283 230,-283" fill="none" stroke="#000000" stroke-width="1" stroke-linecap="square"/>
<polyline points="211,-282 211,-259 230,-259" fill="none" stroke="#000000" stroke-width="1" stroke-linecap="square"/>
<line x1="211" y1="-306" x2="211" y2="-281" stroke="#000000" stroke-width="1" stroke-linecap="square"/>
<polyline points="192,-259 192,-283 211,-283" fill="none" stroke="#000000" stroke-width="1" stroke-linecap="square"/>
<polyline points="192,-258 192,-235 230,-235" fill="none" stroke="#000000" stroke-width="1" stroke-linecap="square"/>
<polyline points="173,-229 173,-259 192,-259" fill="none" stroke="#000000" stroke-width="1" stroke-linecap="square"/>
<polyline points="211,-199 211,-211 230,-211" fill="none" stroke="#000000" stroke-width="1" stroke-linecap="square"/>
<polyline points="211,-198 211,-187 230,-187" fill="none" stroke="#000000" stroke-width="1" stroke-linecap="square"/>
<polyline points="173,-228 173,-199 211,-199" fill="none" stroke="#000000" stroke-width="1" stroke-linecap="square"/>
<polyline points="173,-210 173,-163 230,-163" fill="none" stroke="#000000" stroke-width="1" stroke-linecap="square"/>
<line x1="173" y1="-258" x2="173" y2="-209" stroke="#000000" stroke-width="1" stroke-linecap="square"/>
<polyline points="154,-145 154,-211 173,-211" fill="none" stroke="#000000" stroke-width="1" stroke-linecap="square"/>
<polyline points="211,-127 211,-139 230,-139" fill="none" stroke="#000000" stroke-width="1" stroke-linecap="square"/>
<polyline points="211,-126 211,-115 230,-115" fill="none" stroke="#000000" stroke-width="1" stroke-linecap="square"/>
<polyline points="154,-103 154,-127 211,-127" fill="none" stroke="#000000" stroke-width="1" stroke-linecap="square"/>
<polyline points="211,-79 211,-91 230,-91" fill="none" stroke="#000000" stroke-width="1" stroke-linecap="square"/>
<polyline points="211,-78 211,-67 230,-67" fill="none" stroke="#000000" stroke-width="1" stroke-linecap="square"/>
<polyline points="154,-102 154,-79 211,-79" fill="none" stroke="#000000" stroke-width="1" stroke-linecap="square"/>
<line x1="154" y1="-145" x2="154" y2="-79" stroke="#000000" stroke-width="1" stroke-linecap="square"/>
<polyline points="135,-94 135,-145 154,-145" fill="none" stroke="#000000" stroke-width="1" stroke-linecap="square"/>
<polyline points="135,-93 135,-43 230,-43" fill="none" stroke="#000000" stroke-width="1" stroke-linecap="square"/>
<polyline points="211,-7 211,-19 230,-19" fill="none" stroke="#000000" stroke-width="1" stroke-linecap="square"/>
<polyline points="211,-6 211,5 230,5" fill="none" stroke="#000000" stroke-width="1" stroke-linecap="square"/>
<polyline points="135,-75 135,-7 211,-7" fill="none" stroke="#000000" stroke-width="1" stroke-linecap="square"/>
<text x="236" y="37" fill="#000000" font-size="18" font-family="Arial" > AF069201.1 Vallisneria americana</text>
<polyline points="211,41 211,29 230,29" fill="none" stroke="#000000" stroke-width="1" stroke-linecap="square"/>
<text x="236" y="61" fill="#000000" font-size="18" font-family="Arial" > AY952384.1 Vallisneria asiatica</text>
<polyline points="211,42 211,53 230,53" fill="none" stroke="#000000" stroke-width="1" stroke-linecap="square"/>
<polyline points="135,-51 135,41 211,41" fill="none" stroke="#000000" stroke-width="1" stroke-linecap="square"/>
<line x1="135" y1="-144" x2="135" y2="-50" stroke="#000000" stroke-width="1" stroke-linecap="square"/>
<polyline points="116,12 116,-52 135,-52" fill="none" stroke="#000000" stroke-width="1" stroke-linecap="square"/>
<text x="236" y="85" fill="#000000" font-size="18" font-family="Arial" > AY952399.1 Hydrilla verticillata</text>
<polyline points="116,13 116,77 230,77" fill="none" stroke="#000000" stroke-width="1" stroke-linecap="square"/>
<polyline points="97,188 97,12 116,12" fill="none" stroke="#000000" stroke-width="1" stroke-linecap="square"/>
<text x="236" y="109" fill="#000000" font-size="18" font-family="Arial" > AF168876.1 Syringodium filiforme</text>
<polyline points="211,113 211,101 230,101" fill="none" stroke="#000000" stroke-width="1" stroke-linecap="square"/>
<text x="236" y="133" fill="#000000" font-size="18" font-family="Arial" > JQ041653.1 Syringodium isoetifolium</text>
<polyline points="211,114 211,125 230,125" fill="none" stroke="#000000" stroke-width="1" stroke-linecap="square"/>
<polyline points="192,143 192,113 211,113" fill="none" stroke="#000000" stroke-width="1" stroke-linecap="square"/>
<text x="236" y="157" fill="#000000" font-size="18" font-family="Arial" > JQ041654.1 Cymodocea rotundata</text>
<polyline points="192,161 192,149 230,149" fill="none" stroke="#000000" stroke-width="1" stroke-linecap="square"/>
<text x="236" y="181" fill="#000000" font-size="18" font-family="Arial" > JQ041655.1 Cymodocea serrulata</text>
<polyline points="192,162 192,173 230,173" fill="none" stroke="#000000" stroke-width="1" stroke-linecap="square"/>
<line x1="192" y1="143" x2="192" y2="173" stroke="#000000" stroke-width="1" stroke-linecap="square"/>
<polyline points="173,170 173,143 192,143" fill="none" stroke="#000000" stroke-width="1" stroke-linecap="square"/>
<text x="236" y="205" fill="#000000" font-size="18" font-family="Arial" > JX446578.1 Salicornia bigelovii</text>
<polyline points="173,171 173,197 230,197" fill="none" stroke="#000000" stroke-width="1" stroke-linecap="square"/>
<polyline points="97,267 97,170 173,170" fill="none" stroke="#000000" stroke-width="1" stroke-linecap="square"/>
<text x="236" y="229" fill="#000000" font-size="18" font-family="Arial" > AY491942.1 Posidonia oceanica</text>
<polyline points="211,233 211,221 230,221" fill="none" stroke="#000000" stroke-width="1" stroke-linecap="square"/>
<text x="236" y="253" fill="#000000" font-size="18" font-family="Arial" > GQ497582.1 Posidonia australis</text>
<polyline points="211,234 211,245 230,245" fill="none" stroke="#000000" stroke-width="1" stroke-linecap="square"/>
<polyline points="97,299 97,233 211,233" fill="none" stroke="#000000" stroke-width="1" stroke-linecap="square"/>
<text x="236" y="277" fill="#000000" font-size="18" font-family="Arial" > JQ041657.1 Halodule uninervis</text>
<polyline points="211,281 211,269 230,269" fill="none" stroke="#000000" stroke-width="1" stroke-linecap="square"/>
<text x="236" y="301" fill="#000000" font-size="18" font-family="Arial" > JQ041660.1 Halodule wrightii</text>
<polyline points="211,282 211,293 230,293" fill="none" stroke="#000000" stroke-width="1" stroke-linecap="square"/>
<polyline points="192,299 192,281 211,281" fill="none" stroke="#000000" stroke-width="1" stroke-linecap="square"/>
<text x="236" y="325" fill="#000000" font-size="18" font-family="Arial" > JQ041645.1 Halodule pinifolia</text>
<polyline points="192,300 192,317 230,317" fill="none" stroke="#000000" stroke-width="1" stroke-linecap="square"/>
<polyline points="97,332 97,299 192,299" fill="none" stroke="#000000" stroke-width="1" stroke-linecap="square"/>
<text x="236" y="349" fill="#000000" font-size="18" font-family="Arial" > AF168883.1 Zannichellia palustris</text>
<polyline points="192,365 192,341 230,341" fill="none" stroke="#000000" stroke-width="1" stroke-linecap="square"/>
<text x="236" y="373" fill="#000000" font-size="18" font-family="Arial" > EF526318.1 Potamogeton crispus</text>
<polyline points="211,389 211,365 230,365" fill="none" stroke="#000000" stroke-width="1" stroke-linecap="square"/>
<text x="236" y="397" fill="#000000" font-size="18" font-family="Arial" > EF526336.1 Potamogeton natans</text>
<polyline points="211,401 211,389 230,389" fill="none" stroke="#000000" stroke-width="1" stroke-linecap="square"/>
<text x="236" y="421" fill="#000000" font-size="18" font-family="Arial" > EF526353.1 Potamogeton pusillus</text>
<polyline points="211,402 211,413 230,413" fill="none" stroke="#000000" stroke-width="1" stroke-linecap="square"/>
<line x1="211" y1="389" x2="211" y2="413" stroke="#000000" stroke-width="1" stroke-linecap="square"/>
<polyline points="192,366 192,389 211,389" fill="none" stroke="#000000" stroke-width="1" stroke-linecap="square"/>
<polyline points="97,333 97,365 192,365" fill="none" stroke="#000000" stroke-width="1" stroke-linecap="square"/>
<text x="236" y="445" fill="#000000" font-size="18" font-family="Arial" > JN034103.1 Ruppia maritima</text>
<polyline points="97,225 97,437 230,437" fill="none" stroke="#000000" stroke-width="1" stroke-linecap="square"/>
<line x1="97" y1="13" x2="97" y2="226" stroke="#000000" stroke-width="1" stroke-linecap="square"/>
<polyline points="78,342 78,224 97,224" fill="none" stroke="#000000" stroke-width="1" stroke-linecap="square"/>
<text x="236" y="469" fill="#000000" font-size="18" font-family="Arial" > HQ660595.1 Phyllospadix iwatensis</text>
<polyline points="78,343 78,461 230,461" fill="none" stroke="#000000" stroke-width="1" stroke-linecap="square"/>
<polyline points="59,413 59,342 78,342" fill="none" stroke="#000000" stroke-width="1" stroke-linecap="square"/>
<text x="236" y="493" fill="#000000" font-size="18" font-family="Arial" > AF207058.1 Zostera noltii</text>
<polyline points="59,414 59,485 230,485" fill="none" stroke="#000000" stroke-width="1" stroke-linecap="square"/>
<text x="236" y="517" fill="#000000" font-size="18" font-family="Arial" > AY952401.1 Halodule uninervis</text>
<polyline points="59,527 59,509 230,509" fill="none" stroke="#000000" stroke-width="1" stroke-linecap="square"/>
<text x="236" y="541" fill="#000000" font-size="18" font-family="Arial" > JQ041650.1 Zostera noltii</text>
<polyline points="211,545 211,533 230,533" fill="none" stroke="#000000" stroke-width="1" stroke-linecap="square"/>
<text x="236" y="565" fill="#000000" font-size="18" font-family="Arial" > JQ041651.1 Zostera noltii</text>
<polyline points="211,546 211,557 230,557" fill="none" stroke="#000000" stroke-width="1" stroke-linecap="square"/>
<polyline points="59,528 59,545 211,545" fill="none" stroke="#000000" stroke-width="1" stroke-linecap="square"/>
<line x1="59" y1="343" x2="59" y2="445" stroke="#000000" stroke-width="1" stroke-linecap="square"/>
<line x1="59" y1="443" x2="59" y2="545" stroke="#000000" stroke-width="1" stroke-linecap="square"/>
<polyline points="40,527 40,443 59,443" fill="none" stroke="#000000" stroke-width="1" stroke-linecap="square"/>
<text x="236" y="589" fill="#000000" font-size="18" font-family="Arial" > JQ041647.1 Zostera marina</text>
<polyline points="192,611 192,581 230,581" fill="none" stroke="#000000" stroke-width="1" stroke-linecap="square"/>
<text x="236" y="613" fill="#000000" font-size="18" font-family="Arial" > JQ041648.1 Zostera marina</text>
<polyline points="192,623 192,605 230,605" fill="none" stroke="#000000" stroke-width="1" stroke-linecap="square"/>
<text x="236" y="637" fill="#000000" font-size="18" font-family="Arial" > HQ445940.1 Zostera marina</text>
<polyline points="211,641 211,629 230,629" fill="none" stroke="#000000" stroke-width="1" stroke-linecap="square"/>
<text x="236" y="661" fill="#000000" font-size="18" font-family="Arial" > JQ041649.1 Zostera marina</text>
<polyline points="211,642 211,653 230,653" fill="none" stroke="#000000" stroke-width="1" stroke-linecap="square"/>
<polyline points="192,624 192,641 211,641" fill="none" stroke="#000000" stroke-width="1" stroke-linecap="square"/>
<line x1="192" y1="611" x2="192" y2="641" stroke="#000000" stroke-width="1" stroke-linecap="square"/>
<polyline points="40,528 40,611 192,611" fill="none" stroke="#000000" stroke-width="1" stroke-linecap="square"/>
<text x="184" y="11" fill="#000000" font-size="15" font-family="Arial" >100</text>
<text x="184" y="59" fill="#000000" font-size="15" font-family="Arial" >100</text>
<text x="192" y="230" fill="#000000" font-size="15" font-family="Arial" >95</text>
<text x="192" y="-61" fill="#000000" font-size="15" font-family="Arial" >93</text>
<text x="192" y="110" fill="#000000" font-size="15" font-family="Arial" >75</text>
<text x="192" y="659" fill="#000000" font-size="15" font-family="Arial" >72</text>
<text x="192" y="-181" fill="#000000" font-size="15" font-family="Arial" >67</text>
<text x="192" y="278" fill="#000000" font-size="15" font-family="Arial" >65</text>
<text x="165" y="296" fill="#000000" font-size="15" font-family="Arial" >100</text>
<text x="192" y="-130" fill="#000000" font-size="15" font-family="Arial" >58</text>
<text x="192" y="563" fill="#000000" font-size="15" font-family="Arial" >50</text>
<text x="192" y="-286" fill="#000000" font-size="15" font-family="Arial" >58</text>
<text x="173" y="-262" fill="#000000" font-size="15" font-family="Arial" >52</text>
<text x="173" y="140" fill="#000000" font-size="15" font-family="Arial" >59</text>
<text x="154" y="167" fill="#000000" font-size="15" font-family="Arial" >50</text>
<text x="173" y="629" fill="#000000" font-size="15" font-family="Arial" >81</text>
<text x="154" y="-214" fill="#000000" font-size="15" font-family="Arial" >88</text>
<text x="135" y="-148" fill="#000000" font-size="15" font-family="Arial" >54</text>
<text x="116" y="-55" fill="#000000" font-size="15" font-family="Arial" >61</text>
<text x="97" y="9" fill="#000000" font-size="15" font-family="Arial" >99</text>
<text x="192" y="407" fill="#000000" font-size="15" font-family="Arial" >93</text>
<text x="173" y="383" fill="#000000" font-size="15" font-family="Arial" >96</text>
<text x="78" y="221" fill="#000000" font-size="15" font-family="Arial" >97</text>
<text x="59" y="339" fill="#000000" font-size="15" font-family="Arial" >99</text>
<text x="236" y="43" fill="#000000" font-size="18" font-family="Arial" > JQ041658.1 Halophila ovalis</text>
<polyline points="211,47 211,35 230,35" fill="none" stroke="#000000" stroke-width="1" stroke-linecap="square"/>
<text x="236" y="67" fill="#000000" font-size="18" font-family="Arial" > JQ041659.1 Halophila minor</text>
<polyline points="211,48 211,59 230,59" fill="none" stroke="#000000" stroke-width="1" stroke-linecap="square"/>
<text x="236" y="91" fill="#000000" font-size="18" font-family="Arial" > JQ041652.1 Halophila ovalis subsp. ramamurthiana from</text>
<polyline points="211,60 211,83 230,83" fill="none" stroke="#000000" stroke-width="1" stroke-linecap="square"/>
<line x1="211" y1="36" x2="211" y2="61" stroke="#000000" stroke-width="1" stroke-linecap="square"/>
<polyline points="192,83 192,59 211,59" fill="none" stroke="#000000" stroke-width="1" stroke-linecap="square"/>
<text x="236" y="115" fill="#000000" font-size="18" font-family="Arial" > AY952400.1 Halophila ovalis</text>
<polyline points="192,84 192,107 230,107" fill="none" stroke="#000000" stroke-width="1" stroke-linecap="square"/>
<polyline points="173,113 173,83 192,83" fill="none" stroke="#000000" stroke-width="1" stroke-linecap="square"/>
<text x="236" y="139" fill="#000000" font-size="18" font-family="Arial" > JQ041643.1 Halophila stipulacea</text>
<polyline points="211,143 211,131 230,131" fill="none" stroke="#000000" stroke-width="1" stroke-linecap="square"/>
<text x="236" y="163" fill="#000000" font-size="18" font-family="Arial" > JQ041661.1 Halophila decipiens</text>
<polyline points="211,144 211,155 230,155" fill="none" stroke="#000000" stroke-width="1" stroke-linecap="square"/>
<polyline points="173,114 173,143 211,143" fill="none" stroke="#000000" stroke-width="1" stroke-linecap="square"/>
<text x="236" y="187" fill="#000000" font-size="18" font-family="Arial" > JQ041646.1 Halophila beccarii</text>
<polyline points="173,132 173,179 230,179" fill="none" stroke="#000000" stroke-width="1" stroke-linecap="square"/>
<line x1="173" y1="84" x2="173" y2="133" stroke="#000000" stroke-width="1" stroke-linecap="square"/>
<polyline points="154,197 154,131 173,131" fill="none" stroke="#000000" stroke-width="1" stroke-linecap="square"/>
<text x="236" y="211" fill="#000000" font-size="18" font-family="Arial" > AF168878.1 Thalassia testudinum</text>
<polyline points="211,215 211,203 230,203" fill="none" stroke="#000000" stroke-width="1" stroke-linecap="square"/>
<text x="236" y="235" fill="#000000" font-size="18" font-family="Arial" > JQ041656.1 Thalassia hemprichii</text>
<polyline points="211,216 211,227 230,227" fill="none" stroke="#000000" stroke-width="1" stroke-linecap="square"/>
<polyline points="154,239 154,215 211,215" fill="none" stroke="#000000" stroke-width="1" stroke-linecap="square"/>
<text x="236" y="259" fill="#000000" font-size="18" font-family="Arial" > AY952403.1 Enhalus acoroides</text>
<polyline points="211,263 211,251 230,251" fill="none" stroke="#000000" stroke-width="1" stroke-linecap="square"/>
<text x="236" y="283" fill="#000000" font-size="18" font-family="Arial" > JQ041644.1 Enhalus acoroides</text>
<polyline points="211,264 211,275 230,275" fill="none" stroke="#000000" stroke-width="1" stroke-linecap="square"/>
<polyline points="154,240 154,263 211,263" fill="none" stroke="#000000" stroke-width="1" stroke-linecap="square"/>
<line x1="154" y1="197" x2="154" y2="263" stroke="#000000" stroke-width="1" stroke-linecap="square"/>
<polyline points="135,248 135,197 154,197" fill="none" stroke="#000000" stroke-width="1" stroke-linecap="square"/>
<text x="236" y="307" fill="#000000" font-size="18" font-family="Arial" > AY952398.1 Hydrocharis dubia</text>
<polyline points="135,249 135,299 230,299" fill="none" stroke="#000000" stroke-width="1" stroke-linecap="square"/>
<text x="236" y="331" fill="#000000" font-size="18" font-family="Arial" > EF526335.1 Najas guadalupensis</text>
<polyline points="211,335 211,323 230,323" fill="none" stroke="#000000" stroke-width="1" stroke-linecap="square"/>
<text x="236" y="355" fill="#000000" font-size="18" font-family="Arial" > EF526347.1 Najas minor</text>
<polyline points="211,336 211,347 230,347" fill="none" stroke="#000000" stroke-width="1" stroke-linecap="square"/>
<polyline points="135,267 135,335 211,335" fill="none" stroke="#000000" stroke-width="1" stroke-linecap="square"/>
<text x="236" y="379" fill="#000000" font-size="18" font-family="Arial" > AF069201.1 Vallisneria americana</text>
<polyline points="211,383 211,371 230,371" fill="none" stroke="#000000" stroke-width="1" stroke-linecap="square"/>
<text x="236" y="403" fill="#000000" font-size="18" font-family="Arial" > AY952384.1 Vallisneria asiatica</text>
<polyline points="211,384 211,395 230,395" fill="none" stroke="#000000" stroke-width="1" stroke-linecap="square"/>
<polyline points="135,291 135,383 211,383" fill="none" stroke="#000000" stroke-width="1" stroke-linecap="square"/>
<line x1="135" y1="198" x2="135" y2="292" stroke="#000000" stroke-width="1" stroke-linecap="square"/>
<polyline points="116,354 116,290 135,290" fill="none" stroke="#000000" stroke-width="1" stroke-linecap="square"/>
<text x="236" y="427" fill="#000000" font-size="18" font-family="Arial" > AY952399.1 Hydrilla verticillata</text>
<polyline points="116,355 116,419 230,419" fill="none" stroke="#000000" stroke-width="1" stroke-linecap="square"/>
<polyline points="97,530 97,354 116,354" fill="none" stroke="#000000" stroke-width="1" stroke-linecap="square"/>
<text x="236" y="451" fill="#000000" font-size="18" font-family="Arial" > AF168876.1 Syringodium filiforme</text>
<polyline points="211,455 211,443 230,443" fill="none" stroke="#000000" stroke-width="1" stroke-linecap="square"/>
<text x="236" y="475" fill="#000000" font-size="18" font-family="Arial" > JQ041653.1 Syringodium isoetifolium</text>
<polyline points="211,456 211,467 230,467" fill="none" stroke="#000000" stroke-width="1" stroke-linecap="square"/>
<polyline points="192,485 192,455 211,455" fill="none" stroke="#000000" stroke-width="1" stroke-linecap="square"/>
<text x="236" y="499" fill="#000000" font-size="18" font-family="Arial" > JQ041654.1 Cymodocea rotundata</text>
<polyline points="192,503 192,491 230,491" fill="none" stroke="#000000" stroke-width="1" stroke-linecap="square"/>
<text x="236" y="523" fill="#000000" font-size="18" font-family="Arial" > JQ041655.1 Cymodocea serrulata</text>
<polyline points="192,504 192,515 230,515" fill="none" stroke="#000000" stroke-width="1" stroke-linecap="square"/>
<line x1="192" y1="485" x2="192" y2="515" stroke="#000000" stroke-width="1" stroke-linecap="square"/>
<polyline points="173,512 173,485 192,485" fill="none" stroke="#000000" stroke-width="1" stroke-linecap="square"/>
<text x="236" y="547" fill="#000000" font-size="18" font-family="Arial" > JX446578.1 Salicornia bigelovii</text>
<polyline points="173,513 173,539 230,539" fill="none" stroke="#000000" stroke-width="1" stroke-linecap="square"/>
<polyline points="97,609 97,512 173,512" fill="none" stroke="#000000" stroke-width="1" stroke-linecap="square"/>
<text x="236" y="571" fill="#000000" font-size="18" font-family="Arial" > AY491942.1 Posidonia oceanica</text>
<polyline points="211,575 211,563 230,563" fill="none" stroke="#000000" stroke-width="1" stroke-linecap="square"/>
<text x="236" y="595" fill="#000000" font-size="18" font-family="Arial" > GQ497582.1 Posidonia australis</text>
<polyline points="211,576 211,587 230,587" fill="none" stroke="#000000" stroke-width="1" stroke-linecap="square"/>
<polyline points="97,641 97,575 211,575" fill="none" stroke="#000000" stroke-width="1" stroke-linecap="square"/>
<text x="236" y="619" fill="#000000" font-size="18" font-family="Arial" > JQ041657.1 Halodule uninervis</text>
<polyline points="211,623 211,611 230,611" fill="none" stroke="#000000" stroke-width="1" stroke-linecap="square"/>
<text x="236" y="643" fill="#000000" font-size="18" font-family="Arial" > JQ041660.1 Halodule wrightii</text>
<polyline points="211,624 211,635 230,635" fill="none" stroke="#000000" stroke-width="1" stroke-linecap="square"/>
<polyline points="192,641 192,623 211,623" fill="none" stroke="#000000" stroke-width="1" stroke-linecap="square"/>
<text x="236" y="667" fill="#000000" font-size="18" font-family="Arial" > JQ041645.1 Halodule pinifolia</text>
<polyline points="192,642 192,659 230,659" fill="none" stroke="#000000" stroke-width="1" stroke-linecap="square"/>
<polyline points="97,674 97,641 192,641" fill="none" stroke="#000000" stroke-width="1" stroke-linecap="square"/>
<text x="236" y="691" fill="#000000" font-size="18" font-family="Arial" > AF168883.1 Zannichellia palustris</text>
<polyline points="192,707 192,683 230,683" fill="none" stroke="#000000" stroke-width="1" stroke-linecap="square"/>
<text x="236" y="715" fill="#000000" font-size="18" font-family="Arial" > EF526318.1 Potamogeton crispus</text>
<polyline points="211,731 211,707 230,707" fill="none" stroke="#000000" stroke-width="1" stroke-linecap="square"/>
<text x="236" y="739" fill="#000000" font-size="18" font-family="Arial" > EF526336.1 Potamogeton natans</text>
<polyline points="211,743 211,731 230,731" fill="none" stroke="#000000" stroke-width="1" stroke-linecap="square"/>
<text x="236" y="763" fill="#000000" font-size="18" font-family="Arial" > EF526353.1 Potamogeton pusillus</text>
<polyline points="211,744 211,755 230,755" fill="none" stroke="#000000" stroke-width="1" stroke-linecap="square"/>
<line x1="211" y1="731" x2="211" y2="755" stroke="#000000" stroke-width="1" stroke-linecap="square"/>
<polyline points="192,708 192,731 211,731" fill="none" stroke="#000000" stroke-width="1" stroke-linecap="square"/>
<polyline points="97,675 97,707 192,707" fill="none" stroke="#000000" stroke-width="1" stroke-linecap="square"/>
<text x="236" y="787" fill="#000000" font-size="18" font-family="Arial" > JN034103.1 Ruppia maritima</text>
<polyline points="97,567 97,779 230,779" fill="none" stroke="#000000" stroke-width="1" stroke-linecap="square"/>
<line x1="97" y1="355" x2="97" y2="568" stroke="#000000" stroke-width="1" stroke-linecap="square"/>
<polyline points="78,684 78,566 97,566" fill="none" stroke="#000000" stroke-width="1" stroke-linecap="square"/>
<text x="236" y="811" fill="#000000" font-size="18" font-family="Arial" > HQ660595.1 Phyllospadix iwatensis</text>
<polyline points="78,685 78,803 230,803" fill="none" stroke="#000000" stroke-width="1" stroke-linecap="square"/>
<polyline points="59,755 59,684 78,684" fill="none" stroke="#000000" stroke-width="1" stroke-linecap="square"/>
<text x="236" y="835" fill="#000000" font-size="18" font-family="Arial" > AF207058.1 Zostera noltii</text>
<polyline points="59,756 59,827 230,827" fill="none" stroke="#000000" stroke-width="1" stroke-linecap="square"/>
<text x="236" y="859" fill="#000000" font-size="18" font-family="Arial" > AY952401.1 Halodule uninervis</text>
<polyline points="59,869 59,851 230,851" fill="none" stroke="#000000" stroke-width="1" stroke-linecap="square"/>
<text x="236" y="883" fill="#000000" font-size="18" font-family="Arial" > JQ041650.1 Zostera noltii</text>
<polyline points="211,887 211,875 230,875" fill="none" stroke="#000000" stroke-width="1" stroke-linecap="square"/>
<text x="236" y="907" fill="#000000" font-size="18" font-family="Arial" > JQ041651.1 Zostera noltii</text>
<polyline points="211,888 211,899 230,899" fill="none" stroke="#000000" stroke-width="1" stroke-linecap="square"/>
<polyline points="59,870 59,887 211,887" fill="none" stroke="#000000" stroke-width="1" stroke-linecap="square"/>
<line x1="59" y1="685" x2="59" y2="787" stroke="#000000" stroke-width="1" stroke-linecap="square"/>
<line x1="59" y1="785" x2="59" y2="887" stroke="#000000" stroke-width="1" stroke-linecap="square"/>
<polyline points="40,869 40,785 59,785" fill="none" stroke="#000000" stroke-width="1" stroke-linecap="square"/>
<text x="236" y="931" fill="#000000" font-size="18" font-family="Arial" > JQ041647.1 Zostera marina</text>
<polyline points="192,953 192,923 230,923" fill="none" stroke="#000000" stroke-width="1" stroke-linecap="square"/>
<text x="236" y="955" fill="#000000" font-size="18" font-family="Arial" > JQ041648.1 Zostera marina</text>
<polyline points="192,965 192,947 230,947" fill="none" stroke="#000000" stroke-width="1" stroke-linecap="square"/>
<text x="236" y="979" fill="#000000" font-size="18" font-family="Arial" > HQ445940.1 Zostera marina</text>
<polyline points="211,983 211,971 230,971" fill="none" stroke="#000000" stroke-width="1" stroke-linecap="square"/>
<text x="236" y="1003" fill="#000000" font-size="18" font-family="Arial" > JQ041649.1 Zostera marina</text>
<polyline points="211,984 211,995 230,995" fill="none" stroke="#000000" stroke-width="1" stroke-linecap="square"/>
<polyline points="192,966 192,983 211,983" fill="none" stroke="#000000" stroke-width="1" stroke-linecap="square"/>
<line x1="192" y1="953" x2="192" y2="983" stroke="#000000" stroke-width="1" stroke-linecap="square"/>
<polyline points="40,870 40,953 192,953" fill="none" stroke="#000000" stroke-width="1" stroke-linecap="square"/>
<text x="184" y="353" fill="#000000" font-size="15" font-family="Arial" >100</text>
<text x="184" y="401" fill="#000000" font-size="15" font-family="Arial" >100</text>
<text x="192" y="572" fill="#000000" font-size="15" font-family="Arial" >95</text>
<text x="192" y="281" fill="#000000" font-size="15" font-family="Arial" >93</text>
<text x="192" y="452" fill="#000000" font-size="15" font-family="Arial" >75</text>
<text x="192" y="1001" fill="#000000" font-size="15" font-family="Arial" >72</text>
<text x="192" y="161" fill="#000000" font-size="15" font-family="Arial" >67</text>
<text x="192" y="620" fill="#000000" font-size="15" font-family="Arial" >65</text>
<text x="165" y="638" fill="#000000" font-size="15" font-family="Arial" >100</text>
<text x="192" y="212" fill="#000000" font-size="15" font-family="Arial" >58</text>
<text x="192" y="905" fill="#000000" font-size="15" font-family="Arial" >50</text>
<text x="192" y="56" fill="#000000" font-size="15" font-family="Arial" >58</text>
<text x="173" y="80" fill="#000000" font-size="15" font-family="Arial" >52</text>
<text x="173" y="482" fill="#000000" font-size="15" font-family="Arial" >59</text>
<text x="154" y="509" fill="#000000" font-size="15" font-family="Arial" >50</text>
<text x="173" y="971" fill="#000000" font-size="15" font-family="Arial" >81</text>
<text x="154" y="128" fill="#000000" font-size="15" font-family="Arial" >88</text>
<text x="135" y="194" fill="#000000" font-size="15" font-family="Arial" >54</text>
<text x="116" y="287" fill="#000000" font-size="15" font-family="Arial" >61</text>
<text x="97" y="351" fill="#000000" font-size="15" font-family="Arial" >99</text>
<text x="192" y="749" fill="#000000" font-size="15" font-family="Arial" >93</text>
<text x="173" y="725" fill="#000000" font-size="15" font-family="Arial" >96</text>
<text x="78" y="563" fill="#000000" font-size="15" font-family="Arial" >97</text>
<text x="59" y="681" fill="#000000" font-size="15" font-family="Arial" >99</text>
</svg>
