<svg xmlns="http://www.w3.org/2000/svg" xmlns:xlink="http://www.w3.org/1999/xlink" version="1.1" width="2552" height="1124" name="msa_tree.svg" y="0" viewBox="0 0 2552 1124">
<polyline points="2552,1124 0,1124 0,0 2552,0 2552,1124" fill="white" />
<text x="994" y="43" fill="#000000" font-size="18" font-family="Arial" > JQ041652.1 Halophila ovalis subsp. ramamurthiana from</text>
<polyline points="938,47 938,35 988,35" fill="none" stroke="#000000" stroke-width="1" stroke-linecap="square"/>
<text x="954" y="67" fill="#000000" font-size="18" font-family="Arial" > JQ041659.1 Halophila minor</text>
<polyline points="938,48 938,59 948,59" fill="none" stroke="#000000" stroke-width="1" stroke-linecap="square"/>
<text x="954" y="91" fill="#000000" font-size="18" font-family="Arial" > JQ041658.1 Halophila ovalis</text>
<polyline points="938,60 938,83 948,83" fill="none" stroke="#000000" stroke-width="1" stroke-linecap="square"/>
<line x1="938" y1="36" x2="938" y2="61" stroke="#000000" stroke-width="1" stroke-linecap="square"/>
<polyline points="928,83 928,59 938,59" fill="none" stroke="#000000" stroke-width="1" stroke-linecap="square"/>
<text x="944" y="115" fill="#000000" font-size="18" font-family="Arial" > AY952400.1 Halophila ovalis</text>
<polyline points="928,84 928,107 938,107" fill="none" stroke="#000000" stroke-width="1" stroke-linecap="square"/>
<polyline points="918,113 918,83 928,83" fill="none" stroke="#000000" stroke-width="1" stroke-linecap="square"/>
<text x="985" y="139" fill="#000000" font-size="18" font-family="Arial" > JQ041643.1 Halophila stipulacea</text>
<polyline points="928,143 928,131 979,131" fill="none" stroke="#000000" stroke-width="1" stroke-linecap="square"/>
<text x="964" y="163" fill="#000000" font-size="18" font-family="Arial" > JQ041661.1 Halophila decipiens</text>
<polyline points="928,144 928,155 958,155" fill="none" stroke="#000000" stroke-width="1" stroke-linecap="square"/>
<polyline points="918,114 918,143 928,143" fill="none" stroke="#000000" stroke-width="1" stroke-linecap="square"/>
<polyline points="908,146 908,113 918,113" fill="none" stroke="#000000" stroke-width="1" stroke-linecap="square"/>
<text x="934" y="187" fill="#000000" font-size="18" font-family="Arial" > JQ041646.1 Halophila beccarii</text>
<polyline points="908,147 908,179 928,179" fill="none" stroke="#000000" stroke-width="1" stroke-linecap="square"/>
<polyline points="862,192 862,146 908,146" fill="none" stroke="#000000" stroke-width="1" stroke-linecap="square"/>
<text x="1025" y="211" fill="#000000" font-size="18" font-family="Arial" > AF168878.1 Thalassia testudinum</text>
<polyline points="887,215 887,203 1019,203" fill="none" stroke="#000000" stroke-width="1" stroke-linecap="square"/>
<text x="934" y="235" fill="#000000" font-size="18" font-family="Arial" > JQ041656.1 Thalassia hemprichii</text>
<polyline points="887,216 887,227 928,227" fill="none" stroke="#000000" stroke-width="1" stroke-linecap="square"/>
<polyline points="870,239 870,215 887,215" fill="none" stroke="#000000" stroke-width="1" stroke-linecap="square"/>
<text x="900" y="259" fill="#000000" font-size="18" font-family="Arial" > AY952403.1 Enhalus acoroides</text>
<polyline points="894,263 894,251 894,251" fill="none" stroke="#000000" stroke-width="1" stroke-linecap="square"/>
<text x="920" y="283" fill="#000000" font-size="18" font-family="Arial" > JQ041644.1 Enhalus acoroides</text>
<polyline points="894,264 894,275 914,275" fill="none" stroke="#000000" stroke-width="1" stroke-linecap="square"/>
<polyline points="870,240 870,263 894,263" fill="none" stroke="#000000" stroke-width="1" stroke-linecap="square"/>
<polyline points="862,193 862,239 870,239" fill="none" stroke="#000000" stroke-width="1" stroke-linecap="square"/>
<polyline points="842,245 842,192 862,192" fill="none" stroke="#000000" stroke-width="1" stroke-linecap="square"/>
<text x="909" y="307" fill="#000000" font-size="18" font-family="Arial" > AY952398.1 Hydrocharis dubia</text>
<polyline points="842,246 842,299 903,299" fill="none" stroke="#000000" stroke-width="1" stroke-linecap="square"/>
<polyline points="831,290 831,245 842,245" fill="none" stroke="#000000" stroke-width="1" stroke-linecap="square"/>
<text x="917" y="331" fill="#000000" font-size="18" font-family="Arial" > EF526335.1 Najas guadalupensis</text>
<polyline points="911,335 911,323 911,323" fill="none" stroke="#000000" stroke-width="1" stroke-linecap="square"/>
<text x="917" y="355" fill="#000000" font-size="18" font-family="Arial" > EF526347.1 Najas minor</text>
<polyline points="911,336 911,347 911,347" fill="none" stroke="#000000" stroke-width="1" stroke-linecap="square"/>
<polyline points="831,291 831,335 911,335" fill="none" stroke="#000000" stroke-width="1" stroke-linecap="square"/>
<polyline points="810,336 810,290 831,290" fill="none" stroke="#000000" stroke-width="1" stroke-linecap="square"/>
<text x="930" y="379" fill="#000000" font-size="18" font-family="Arial" > AF069201.1 Vallisneria americana</text>
<polyline points="924,383 924,371 924,371" fill="none" stroke="#000000" stroke-width="1" stroke-linecap="square"/>
<text x="930" y="403" fill="#000000" font-size="18" font-family="Arial" > AY952384.1 Vallisneria asiatica</text>
<polyline points="924,384 924,395 924,395" fill="none" stroke="#000000" stroke-width="1" stroke-linecap="square"/>
<polyline points="810,337 810,383 924,383" fill="none" stroke="#000000" stroke-width="1" stroke-linecap="square"/>
<polyline points="776,377 776,336 810,336" fill="none" stroke="#000000" stroke-width="1" stroke-linecap="square"/>
<text x="843" y="427" fill="#000000" font-size="18" font-family="Arial" > AY952399.1 Hydrilla verticillata</text>
<polyline points="776,378 776,419 837,419" fill="none" stroke="#000000" stroke-width="1" stroke-linecap="square"/>
<polyline points="486,427 486,377 776,377" fill="none" stroke="#000000" stroke-width="1" stroke-linecap="square"/>
<text x="739" y="451" fill="#000000" font-size="18" font-family="Arial" > JN034103.1 Ruppia maritima</text>
<polyline points="507,477 507,443 733,443" fill="none" stroke="#000000" stroke-width="1" stroke-linecap="square"/>
<text x="605" y="475" fill="#000000" font-size="18" font-family="Arial" > HQ660595.1 Phyllospadix iwatensis</text>
<polyline points="579,512 579,467 599,467" fill="none" stroke="#000000" stroke-width="1" stroke-linecap="square"/>
<text x="636" y="499" fill="#000000" font-size="18" font-family="Arial" > JQ041651.1 Zostera noltii</text>
<polyline points="630,557 630,491 630,491" fill="none" stroke="#000000" stroke-width="1" stroke-linecap="square"/>
<text x="646" y="523" fill="#000000" font-size="18" font-family="Arial" > AF207058.1 Zostera noltii</text>
<polyline points="630,569 630,515 640,515" fill="none" stroke="#000000" stroke-width="1" stroke-linecap="square"/>
<text x="636" y="547" fill="#000000" font-size="18" font-family="Arial" > JQ041650.1 Zostera noltii</text>
<polyline points="630,581 630,539 630,539" fill="none" stroke="#000000" stroke-width="1" stroke-linecap="square"/>
<text x="646" y="571" fill="#000000" font-size="18" font-family="Arial" > AY952401.1 Halodule uninervis</text>
<polyline points="630,593 630,563 640,563" fill="none" stroke="#000000" stroke-width="1" stroke-linecap="square"/>
<text x="656" y="595" fill="#000000" font-size="18" font-family="Arial" > JQ041649.1 Zostera marina</text>
<polyline points="650,623 650,587 650,587" fill="none" stroke="#000000" stroke-width="1" stroke-linecap="square"/>
<text x="676" y="619" fill="#000000" font-size="18" font-family="Arial" > JQ041647.1 Zostera marina</text>
<polyline points="650,635 650,611 670,611" fill="none" stroke="#000000" stroke-width="1" stroke-linecap="square"/>
<text x="656" y="643" fill="#000000" font-size="18" font-family="Arial" > HQ445940.1 Zostera marina</text>
<polyline points="650,647 650,635 650,635" fill="none" stroke="#000000" stroke-width="1" stroke-linecap="square"/>
<text x="676" y="667" fill="#000000" font-size="18" font-family="Arial" > JQ041648.1 Zostera marina</text>
<polyline points="650,648 650,659 670,659" fill="none" stroke="#000000" stroke-width="1" stroke-linecap="square"/>
<line x1="650" y1="623" x2="650" y2="659" stroke="#000000" stroke-width="1" stroke-linecap="square"/>
<polyline points="630,594 630,623 650,623" fill="none" stroke="#000000" stroke-width="1" stroke-linecap="square"/>
<line x1="630" y1="557" x2="630" y2="623" stroke="#000000" stroke-width="1" stroke-linecap="square"/>
<polyline points="579,513 579,557 630,557" fill="none" stroke="#000000" stroke-width="1" stroke-linecap="square"/>
<polyline points="507,478 507,512 579,512" fill="none" stroke="#000000" stroke-width="1" stroke-linecap="square"/>
<polyline points="486,428 486,477 507,477" fill="none" stroke="#000000" stroke-width="1" stroke-linecap="square"/>
<polyline points="471,576 471,427 486,427" fill="none" stroke="#000000" stroke-width="1" stroke-linecap="square"/>
<text x="654" y="691" fill="#000000" font-size="18" font-family="Arial" > AY491942.1 Posidonia oceanica</text>
<polyline points="557,695 557,683 648,683" fill="none" stroke="#000000" stroke-width="1" stroke-linecap="square"/>
<text x="614" y="715" fill="#000000" font-size="18" font-family="Arial" > GQ497582.1 Posidonia australis</text>
<polyline points="557,696 557,707 608,707" fill="none" stroke="#000000" stroke-width="1" stroke-linecap="square"/>
<polyline points="492,725 492,695 557,695" fill="none" stroke="#000000" stroke-width="1" stroke-linecap="square"/>
<text x="767" y="739" fill="#000000" font-size="18" font-family="Arial" > AF168883.1 Zannichellia palustris</text>
<polyline points="720,755 720,731 761,731" fill="none" stroke="#000000" stroke-width="1" stroke-linecap="square"/>
<text x="751" y="763" fill="#000000" font-size="18" font-family="Arial" > EF526353.1 Potamogeton pusillus</text>
<polyline points="745,779 745,755 745,755" fill="none" stroke="#000000" stroke-width="1" stroke-linecap="square"/>
<text x="751" y="787" fill="#000000" font-size="18" font-family="Arial" > EF526318.1 Potamogeton crispus</text>
<polyline points="745,791 745,779 745,779" fill="none" stroke="#000000" stroke-width="1" stroke-linecap="square"/>
<text x="751" y="811" fill="#000000" font-size="18" font-family="Arial" > EF526336.1 Potamogeton natans</text>
<polyline points="745,792 745,803 745,803" fill="none" stroke="#000000" stroke-width="1" stroke-linecap="square"/>
<line x1="745" y1="779" x2="745" y2="803" stroke="#000000" stroke-width="1" stroke-linecap="square"/>
<polyline points="720,756 720,779 745,779" fill="none" stroke="#000000" stroke-width="1" stroke-linecap="square"/>
<polyline points="492,726 492,755 720,755" fill="none" stroke="#000000" stroke-width="1" stroke-linecap="square"/>
<polyline points="471,577 471,725 492,725" fill="none" stroke="#000000" stroke-width="1" stroke-linecap="square"/>
<polyline points="423,713 423,576 471,576" fill="none" stroke="#000000" stroke-width="1" stroke-linecap="square"/>
<text x="552" y="835" fill="#000000" font-size="18" font-family="Arial" > JQ041657.1 Halodule uninervis</text>
<polyline points="546,851 546,827 546,827" fill="none" stroke="#000000" stroke-width="1" stroke-linecap="square"/>
<text x="562" y="859" fill="#000000" font-size="18" font-family="Arial" > JQ041645.1 Halodule pinifolia</text>
<polyline points="546,863 546,851 556,851" fill="none" stroke="#000000" stroke-width="1" stroke-linecap="square"/>
<text x="552" y="883" fill="#000000" font-size="18" font-family="Arial" > JQ041660.1 Halodule wrightii</text>
<polyline points="546,864 546,875 546,875" fill="none" stroke="#000000" stroke-width="1" stroke-linecap="square"/>
<line x1="546" y1="851" x2="546" y2="875" stroke="#000000" stroke-width="1" stroke-linecap="square"/>
<polyline points="423,714 423,851 546,851" fill="none" stroke="#000000" stroke-width="1" stroke-linecap="square"/>
<polyline points="342,824 342,713 423,713" fill="none" stroke="#000000" stroke-width="1" stroke-linecap="square"/>
<text x="478" y="907" fill="#000000" font-size="18" font-family="Arial" > AF168876.1 Syringodium filiforme</text>
<polyline points="421,911 421,899 472,899" fill="none" stroke="#000000" stroke-width="1" stroke-linecap="square"/>
<text x="457" y="931" fill="#000000" font-size="18" font-family="Arial" > JQ041653.1 Syringodium isoetifolium</text>
<polyline points="421,912 421,923 451,923" fill="none" stroke="#000000" stroke-width="1" stroke-linecap="square"/>
<polyline points="391,935 391,911 421,911" fill="none" stroke="#000000" stroke-width="1" stroke-linecap="square"/>
<text x="478" y="955" fill="#000000" font-size="18" font-family="Arial" > JQ041654.1 Cymodocea rotundata</text>
<polyline points="411,959 411,947 472,947" fill="none" stroke="#000000" stroke-width="1" stroke-linecap="square"/>
<text x="458" y="979" fill="#000000" font-size="18" font-family="Arial" > JQ041655.1 Cymodocea serrulata</text>
<polyline points="411,960 411,971 452,971" fill="none" stroke="#000000" stroke-width="1" stroke-linecap="square"/>
<polyline points="391,936 391,959 411,959" fill="none" stroke="#000000" stroke-width="1" stroke-linecap="square"/>
<polyline points="342,825 342,935 391,935" fill="none" stroke="#000000" stroke-width="1" stroke-linecap="square"/>
<polyline points="-1029,909 -1029,824 342,824" fill="none" stroke="#000000" stroke-width="1" stroke-linecap="square"/>
<text x="1025" y="1003" fill="#000000" font-size="18" font-family="Arial" > JX446578.1 Salicornia bigelovii</text>
<polyline points="-1029,910 -1029,995 1019,995" fill="none" stroke="#000000" stroke-width="1" stroke-linecap="square"/>
<text x="897" y="401" fill="#000000" font-size="15" font-family="Arial" >100</text>
<text x="402" y="908" fill="#000000" font-size="15" font-family="Arial" >75</text>
<text x="538" y="692" fill="#000000" font-size="15" font-family="Arial" >95</text>
<text x="909" y="161" fill="#000000" font-size="15" font-family="Arial" >67</text>
<text x="868" y="212" fill="#000000" font-size="15" font-family="Arial" >58</text>
<text x="884" y="353" fill="#000000" font-size="15" font-family="Arial" >100</text>
<text x="875" y="281" fill="#000000" font-size="15" font-family="Arial" >93</text>
<text x="519" y="869" fill="#000000" font-size="15" font-family="Arial" >100</text>
<text x="372" y="953" fill="#000000" font-size="15" font-family="Arial" >59</text>
<text x="919" y="56" fill="#000000" font-size="15" font-family="Arial" >58</text>
<text x="909" y="80" fill="#000000" font-size="15" font-family="Arial" >52</text>
<text x="889" y="143" fill="#000000" font-size="15" font-family="Arial" >88</text>
<text x="404" y="710" fill="#000000" font-size="15" font-family="Arial" >50</text>
<text x="726" y="797" fill="#000000" font-size="15" font-family="Arial" >93</text>
<text x="701" y="773" fill="#000000" font-size="15" font-family="Arial" >96</text>
<text x="843" y="189" fill="#000000" font-size="15" font-family="Arial" >54</text>
<text x="631" y="641" fill="#000000" font-size="15" font-family="Arial" >81</text>
<text x="791" y="333" fill="#000000" font-size="15" font-family="Arial" >61</text>
<text x="611" y="575" fill="#000000" font-size="15" font-family="Arial" >99</text>
<text x="560" y="530" fill="#000000" font-size="15" font-family="Arial" >97</text>
<text x="757" y="374" fill="#000000" font-size="15" font-family="Arial" >99</text>
<line x1="-1009" y1="1032" x2="-723" y2="1032" stroke="#000000" stroke-width="1" stroke-linecap="square"/>
<line x1="-1009" y1="1028" x2="-1009" y2="1036" stroke="#000000" stroke-width="1" stroke-linecap="square"/>
<line x1="-723" y1="1028" x2="-723" y2="1036" stroke="#000000" stroke-width="1" stroke-linecap="square"/>
<text x="-877" y="1066" fill="#000000" font-size="15" font-family="Arial" >0.02</text>
<text x="2063" y="43" fill="#000000" font-size="18" font-family="Arial" > JQ041652.1 Halophila ovalis subsp. ramamurthiana from</text>
<polyline points="2007,47 2007,35 2057,35" fill="none" stroke="#000000" stroke-width="1" stroke-linecap="square"/>
<text x="2023" y="67" fill="#000000" font-size="18" font-family="Arial" > JQ041659.1 Halophila minor</text>
<polyline points="2007,48 2007,59 2017,59" fill="none" stroke="#000000" stroke-width="1" stroke-linecap="square"/>
<text x="2023" y="91" fill="#000000" font-size="18" font-family="Arial" > JQ041658.1 Halophila ovalis</text>
<polyline points="2007,60 2007,83 2017,83" fill="none" stroke="#000000" stroke-width="1" stroke-linecap="square"/>
<line x1="2007" y1="36" x2="2007" y2="61" stroke="#000000" stroke-width="1" stroke-linecap="square"/>
<polyline points="1997,83 1997,59 2007,59" fill="none" stroke="#000000" stroke-width="1" stroke-linecap="square"/>
<text x="2013" y="115" fill="#000000" font-size="18" font-family="Arial" > AY952400.1 Halophila ovalis</text>
<polyline points="1997,84 1997,107 2007,107" fill="none" stroke="#000000" stroke-width="1" stroke-linecap="square"/>
<polyline points="1987,113 1987,83 1997,83" fill="none" stroke="#000000" stroke-width="1" stroke-linecap="square"/>
<text x="2054" y="139" fill="#000000" font-size="18" font-family="Arial" > JQ041643.1 Halophila stipulacea</text>
<polyline points="1997,143 1997,131 2048,131" fill="none" stroke="#000000" stroke-width="1" stroke-linecap="square"/>
<text x="2033" y="163" fill="#000000" font-size="18" font-family="Arial" > JQ041661.1 Halophila decipiens</text>
<polyline points="1997,144 1997,155 2027,155" fill="none" stroke="#000000" stroke-width="1" stroke-linecap="square"/>
<polyline points="1987,114 1987,143 1997,143" fill="none" stroke="#000000" stroke-width="1" stroke-linecap="square"/>
<polyline points="1977,146 1977,113 1987,113" fill="none" stroke="#000000" stroke-width="1" stroke-linecap="square"/>
<text x="2003" y="187" fill="#000000" font-size="18" font-family="Arial" > JQ041646.1 Halophila beccarii</text>
<polyline points="1977,147 1977,179 1997,179" fill="none" stroke="#000000" stroke-width="1" stroke-linecap="square"/>
<polyline points="1931,192 1931,146 1977,146" fill="none" stroke="#000000" stroke-width="1" stroke-linecap="square"/>
<text x="2094" y="211" fill="#000000" font-size="18" font-family="Arial" > AF168878.1 Thalassia testudinum</text>
<polyline points="1956,215 1956,203 2088,203" fill="none" stroke="#000000" stroke-width="1" stroke-linecap="square"/>
<text x="2003" y="235" fill="#000000" font-size="18" font-family="Arial" > JQ041656.1 Thalassia hemprichii</text>
<polyline points="1956,216 1956,227 1997,227" fill="none" stroke="#000000" stroke-width="1" stroke-linecap="square"/>
<polyline points="1939,239 1939,215 1956,215" fill="none" stroke="#000000" stroke-width="1" stroke-linecap="square"/>
<text x="1969" y="259" fill="#000000" font-size="18" font-family="Arial" > AY952403.1 Enhalus acoroides</text>
<polyline points="1963,263 1963,251 1963,251" fill="none" stroke="#000000" stroke-width="1" stroke-linecap="square"/>
<text x="1989" y="283" fill="#000000" font-size="18" font-family="Arial" > JQ041644.1 Enhalus acoroides</text>
<polyline points="1963,264 1963,275 1983,275" fill="none" stroke="#000000" stroke-width="1" stroke-linecap="square"/>
<polyline points="1939,240 1939,263 1963,263" fill="none" stroke="#000000" stroke-width="1" stroke-linecap="square"/>
<polyline points="1931,193 1931,239 1939,239" fill="none" stroke="#000000" stroke-width="1" stroke-linecap="square"/>
<polyline points="1911,245 1911,192 1931,192" fill="none" stroke="#000000" stroke-width="1" stroke-linecap="square"/>
<text x="1978" y="307" fill="#000000" font-size="18" font-family="Arial" > AY952398.1 Hydrocharis dubia</text>
<polyline points="1911,246 1911,299 1972,299" fill="none" stroke="#000000" stroke-width="1" stroke-linecap="square"/>
<polyline points="1900,290 1900,245 1911,245" fill="none" stroke="#000000" stroke-width="1" stroke-linecap="square"/>
<text x="1986" y="331" fill="#000000" font-size="18" font-family="Arial" > EF526335.1 Najas guadalupensis</text>
<polyline points="1980,335 1980,323 1980,323" fill="none" stroke="#000000" stroke-width="1" stroke-linecap="square"/>
<text x="1986" y="355" fill="#000000" font-size="18" font-family="Arial" > EF526347.1 Najas minor</text>
<polyline points="1980,336 1980,347 1980,347" fill="none" stroke="#000000" stroke-width="1" stroke-linecap="square"/>
<polyline points="1900,291 1900,335 1980,335" fill="none" stroke="#000000" stroke-width="1" stroke-linecap="square"/>
<polyline points="1879,336 1879,290 1900,290" fill="none" stroke="#000000" stroke-width="1" stroke-linecap="square"/>
<text x="1999" y="379" fill="#000000" font-size="18" font-family="Arial" > AF069201.1 Vallisneria americana</text>
<polyline points="1993,383 1993,371 1993,371" fill="none" stroke="#000000" stroke-width="1" stroke-linecap="square"/>
<text x="1999" y="403" fill="#000000" font-size="18" font-family="Arial" > AY952384.1 Vallisneria asiatica</text>
<polyline points="1993,384 1993,395 1993,395" fill="none" stroke="#000000" stroke-width="1" stroke-linecap="square"/>
<polyline points="1879,337 1879,383 1993,383" fill="none" stroke="#000000" stroke-width="1" stroke-linecap="square"/>
<polyline points="1845,377 1845,336 1879,336" fill="none" stroke="#000000" stroke-width="1" stroke-linecap="square"/>
<text x="1912" y="427" fill="#000000" font-size="18" font-family="Arial" > AY952399.1 Hydrilla verticillata</text>
<polyline points="1845,378 1845,419 1906,419" fill="none" stroke="#000000" stroke-width="1" stroke-linecap="square"/>
<polyline points="1555,427 1555,377 1845,377" fill="none" stroke="#000000" stroke-width="1" stroke-linecap="square"/>
<text x="1808" y="451" fill="#000000" font-size="18" font-family="Arial" > JN034103.1 Ruppia maritima</text>
<polyline points="1576,477 1576,443 1802,443" fill="none" stroke="#000000" stroke-width="1" stroke-linecap="square"/>
<text x="1674" y="475" fill="#000000" font-size="18" font-family="Arial" > HQ660595.1 Phyllospadix iwatensis</text>
<polyline points="1648,512 1648,467 1668,467" fill="none" stroke="#000000" stroke-width="1" stroke-linecap="square"/>
<text x="1705" y="499" fill="#000000" font-size="18" font-family="Arial" > JQ041651.1 Zostera noltii</text>
<polyline points="1699,557 1699,491 1699,491" fill="none" stroke="#000000" stroke-width="1" stroke-linecap="square"/>
<text x="1715" y="523" fill="#000000" font-size="18" font-family="Arial" > AF207058.1 Zostera noltii</text>
<polyline points="1699,569 1699,515 1709,515" fill="none" stroke="#000000" stroke-width="1" stroke-linecap="square"/>
<text x="1705" y="547" fill="#000000" font-size="18" font-family="Arial" > JQ041650.1 Zostera noltii</text>
<polyline points="1699,581 1699,539 1699,539" fill="none" stroke="#000000" stroke-width="1" stroke-linecap="square"/>
<text x="1715" y="571" fill="#000000" font-size="18" font-family="Arial" > AY952401.1 Halodule uninervis</text>
<polyline points="1699,593 1699,563 1709,563" fill="none" stroke="#000000" stroke-width="1" stroke-linecap="square"/>
<text x="1725" y="595" fill="#000000" font-size="18" font-family="Arial" > JQ041649.1 Zostera marina</text>
<polyline points="1719,623 1719,587 1719,587" fill="none" stroke="#000000" stroke-width="1" stroke-linecap="square"/>
<text x="1745" y="619" fill="#000000" font-size="18" font-family="Arial" > JQ041647.1 Zostera marina</text>
<polyline points="1719,635 1719,611 1739,611" fill="none" stroke="#000000" stroke-width="1" stroke-linecap="square"/>
<text x="1725" y="643" fill="#000000" font-size="18" font-family="Arial" > HQ445940.1 Zostera marina</text>
<polyline points="1719,647 1719,635 1719,635" fill="none" stroke="#000000" stroke-width="1" stroke-linecap="square"/>
<text x="1745" y="667" fill="#000000" font-size="18" font-family="Arial" > JQ041648.1 Zostera marina</text>
<polyline points="1719,648 1719,659 1739,659" fill="none" stroke="#000000" stroke-width="1" stroke-linecap="square"/>
<line x1="1719" y1="623" x2="1719" y2="659" stroke="#000000" stroke-width="1" stroke-linecap="square"/>
<polyline points="1699,594 1699,623 1719,623" fill="none" stroke="#000000" stroke-width="1" stroke-linecap="square"/>
<line x1="1699" y1="557" x2="1699" y2="623" stroke="#000000" stroke-width="1" stroke-linecap="square"/>
<polyline points="1648,513 1648,557 1699,557" fill="none" stroke="#000000" stroke-width="1" stroke-linecap="square"/>
<polyline points="1576,478 1576,512 1648,512" fill="none" stroke="#000000" stroke-width="1" stroke-linecap="square"/>
<polyline points="1555,428 1555,477 1576,477" fill="none" stroke="#000000" stroke-width="1" stroke-linecap="square"/>
<polyline points="1540,576 1540,427 1555,427" fill="none" stroke="#000000" stroke-width="1" stroke-linecap="square"/>
<text x="1723" y="691" fill="#000000" font-size="18" font-family="Arial" > AY491942.1 Posidonia oceanica</text>
<polyline points="1626,695 1626,683 1717,683" fill="none" stroke="#000000" stroke-width="1" stroke-linecap="square"/>
<text x="1683" y="715" fill="#000000" font-size="18" font-family="Arial" > GQ497582.1 Posidonia australis</text>
<polyline points="1626,696 1626,707 1677,707" fill="none" stroke="#000000" stroke-width="1" stroke-linecap="square"/>
<polyline points="1561,725 1561,695 1626,695" fill="none" stroke="#000000" stroke-width="1" stroke-linecap="square"/>
<text x="1836" y="739" fill="#000000" font-size="18" font-family="Arial" > AF168883.1 Zannichellia palustris</text>
<polyline points="1789,755 1789,731 1830,731" fill="none" stroke="#000000" stroke-width="1" stroke-linecap="square"/>
<text x="1820" y="763" fill="#000000" font-size="18" font-family="Arial" > EF526353.1 Potamogeton pusillus</text>
<polyline points="1814,779 1814,755 1814,755" fill="none" stroke="#000000" stroke-width="1" stroke-linecap="square"/>
<text x="1820" y="787" fill="#000000" font-size="18" font-family="Arial" > EF526318.1 Potamogeton crispus</text>
<polyline points="1814,791 1814,779 1814,779" fill="none" stroke="#000000" stroke-width="1" stroke-linecap="square"/>
<text x="1820" y="811" fill="#000000" font-size="18" font-family="Arial" > EF526336.1 Potamogeton natans</text>
<polyline points="1814,792 1814,803 1814,803" fill="none" stroke="#000000" stroke-width="1" stroke-linecap="square"/>
<line x1="1814" y1="779" x2="1814" y2="803" stroke="#000000" stroke-width="1" stroke-linecap="square"/>
<polyline points="1789,756 1789,779 1814,779" fill="none" stroke="#000000" stroke-width="1" stroke-linecap="square"/>
<polyline points="1561,726 1561,755 1789,755" fill="none" stroke="#000000" stroke-width="1" stroke-linecap="square"/>
<polyline points="1540,577 1540,725 1561,725" fill="none" stroke="#000000" stroke-width="1" stroke-linecap="square"/>
<polyline points="1492,713 1492,576 1540,576" fill="none" stroke="#000000" stroke-width="1" stroke-linecap="square"/>
<text x="1621" y="835" fill="#000000" font-size="18" font-family="Arial" > JQ041657.1 Halodule uninervis</text>
<polyline points="1615,851 1615,827 1615,827" fill="none" stroke="#000000" stroke-width="1" stroke-linecap="square"/>
<text x="1631" y="859" fill="#000000" font-size="18" font-family="Arial" > JQ041645.1 Halodule pinifolia</text>
<polyline points="1615,863 1615,851 1625,851" fill="none" stroke="#000000" stroke-width="1" stroke-linecap="square"/>
<text x="1621" y="883" fill="#000000" font-size="18" font-family="Arial" > JQ041660.1 Halodule wrightii</text>
<polyline points="1615,864 1615,875 1615,875" fill="none" stroke="#000000" stroke-width="1" stroke-linecap="square"/>
<line x1="1615" y1="851" x2="1615" y2="875" stroke="#000000" stroke-width="1" stroke-linecap="square"/>
<polyline points="1492,714 1492,851 1615,851" fill="none" stroke="#000000" stroke-width="1" stroke-linecap="square"/>
<polyline points="1411,824 1411,713 1492,713" fill="none" stroke="#000000" stroke-width="1" stroke-linecap="square"/>
<text x="1547" y="907" fill="#000000" font-size="18" font-family="Arial" > AF168876.1 Syringodium filiforme</text>
<polyline points="1490,911 1490,899 1541,899" fill="none" stroke="#000000" stroke-width="1" stroke-linecap="square"/>
<text x="1526" y="931" fill="#000000" font-size="18" font-family="Arial" > JQ041653.1 Syringodium isoetifolium</text>
<polyline points="1490,912 1490,923 1520,923" fill="none" stroke="#000000" stroke-width="1" stroke-linecap="square"/>
<polyline points="1460,935 1460,911 1490,911" fill="none" stroke="#000000" stroke-width="1" stroke-linecap="square"/>
<text x="1547" y="955" fill="#000000" font-size="18" font-family="Arial" > JQ041654.1 Cymodocea rotundata</text>
<polyline points="1480,959 1480,947 1541,947" fill="none" stroke="#000000" stroke-width="1" stroke-linecap="square"/>
<text x="1527" y="979" fill="#000000" font-size="18" font-family="Arial" > JQ041655.1 Cymodocea serrulata</text>
<polyline points="1480,960 1480,971 1521,971" fill="none" stroke="#000000" stroke-width="1" stroke-linecap="square"/>
<polyline points="1460,936 1460,959 1480,959" fill="none" stroke="#000000" stroke-width="1" stroke-linecap="square"/>
<polyline points="1411,825 1411,935 1460,935" fill="none" stroke="#000000" stroke-width="1" stroke-linecap="square"/>
<polyline points="40,909 40,824 1411,824" fill="none" stroke="#000000" stroke-width="1" stroke-linecap="square"/>
<text x="2094" y="1003" fill="#000000" font-size="18" font-family="Arial" > JX446578.1 Salicornia bigelovii</text>
<polyline points="40,910 40,995 2088,995" fill="none" stroke="#000000" stroke-width="1" stroke-linecap="square"/>
<text x="1966" y="401" fill="#000000" font-size="15" font-family="Arial" >100</text>
<text x="1471" y="908" fill="#000000" font-size="15" font-family="Arial" >75</text>
<text x="1607" y="692" fill="#000000" font-size="15" font-family="Arial" >95</text>
<text x="1978" y="161" fill="#000000" font-size="15" font-family="Arial" >67</text>
<text x="1937" y="212" fill="#000000" font-size="15" font-family="Arial" >58</text>
<text x="1953" y="353" fill="#000000" font-size="15" font-family="Arial" >100</text>
<text x="1944" y="281" fill="#000000" font-size="15" font-family="Arial" >93</text>
<text x="1588" y="869" fill="#000000" font-size="15" font-family="Arial" >100</text>
<text x="1441" y="953" fill="#000000" font-size="15" font-family="Arial" >59</text>
<text x="1988" y="56" fill="#000000" font-size="15" font-family="Arial" >58</text>
<text x="1978" y="80" fill="#000000" font-size="15" font-family="Arial" >52</text>
<text x="1958" y="143" fill="#000000" font-size="15" font-family="Arial" >88</text>
<text x="1473" y="710" fill="#000000" font-size="15" font-family="Arial" >50</text>
<text x="1795" y="797" fill="#000000" font-size="15" font-family="Arial" >93</text>
<text x="1770" y="773" fill="#000000" font-size="15" font-family="Arial" >96</text>
<text x="1912" y="189" fill="#000000" font-size="15" font-family="Arial" >54</text>
<text x="1700" y="641" fill="#000000" font-size="15" font-family="Arial" >81</text>
<text x="1860" y="333" fill="#000000" font-size="15" font-family="Arial" >61</text>
<text x="1680" y="575" fill="#000000" font-size="15" font-family="Arial" >99</text>
<text x="1629" y="530" fill="#000000" font-size="15" font-family="Arial" >97</text>
<text x="1826" y="374" fill="#000000" font-size="15" font-family="Arial" >99</text>
<line x1="60" y1="1032" x2="346" y2="1032" stroke="#000000" stroke-width="1" stroke-linecap="square"/>
<line x1="60" y1="1028" x2="60" y2="1036" stroke="#000000" stroke-width="1" stroke-linecap="square"/>
<line x1="346" y1="1028" x2="346" y2="1036" stroke="#000000" stroke-width="1" stroke-linecap="square"/>
<text x="192" y="1066" fill="#000000" font-size="15" font-family="Arial" >0.02</text>
</svg>
