<svg xmlns="http://www.w3.org/2000/svg" xmlns:xlink="http://www.w3.org/1999/xlink" version="1.1" width="2624" height="1136" name="chosen_tree_color.svg" y="0" viewBox="0 0 2624 1136">
<polyline points="2624,1136 0,1136 0,0 2624,0 2624,1136" fill="white" />
<text x="2070" y="45" fill="#00CC99" font-size="20" font-family="Arial" > JQ041652.1 Halophila ovalis subsp. ramamurthiana from</text>
<polyline points="2012,49 2012,37 2061,37" fill="none" stroke="#00CC99" stroke-width="2" stroke-linecap="square"/>
<text x="2031" y="69" fill="#00CC99" font-size="20" font-family="Arial" > JQ041659.1 Halophila minor</text>
<polyline points="2012,51 2012,61 2022,61" fill="none" stroke="#00CC99" stroke-width="2" stroke-linecap="square"/>
<text x="2031" y="93" fill="#00CC99" font-size="20" font-family="Arial" > JQ041658.1 Halophila ovalis</text>
<polyline points="2012,63 2012,85 2022,85" fill="none" stroke="#00CC99" stroke-width="2" stroke-linecap="square"/>
<line x1="2012" y1="38" x2="2012" y2="65" stroke="#00CC99" stroke-width="2" stroke-linecap="square"/>
<polyline points="2002,85 2002,61 2012,61" fill="none" stroke="#00CC99" stroke-width="2" stroke-linecap="square"/>
<text x="2021" y="117" fill="#00CC99" font-size="20" font-family="Arial" > AY952400.1 Halophila ovalis</text>
<polyline points="2002,87 2002,109 2012,109" fill="none" stroke="#00CC99" stroke-width="2" stroke-linecap="square"/>
<polyline points="1992,115 1992,85 2002,85" fill="none" stroke="#00CC99" stroke-width="2" stroke-linecap="square"/>
<text x="2060" y="141" fill="#00CC99" font-size="20" font-family="Arial" > JQ041643.1 Halophila stipulacea</text>
<polyline points="2002,145 2002,133 2051,133" fill="none" stroke="#00CC99" stroke-width="2" stroke-linecap="square"/>
<text x="2040" y="165" fill="#00CC99" font-size="20" font-family="Arial" > JQ041661.1 Halophila decipiens</text>
<polyline points="2002,147 2002,157 2031,157" fill="none" stroke="#00CC99" stroke-width="2" stroke-linecap="square"/>
<polyline points="1992,117 1992,145 2002,145" fill="none" stroke="#00CC99" stroke-width="2" stroke-linecap="square"/>
<polyline points="1982,148 1982,115 1992,115" fill="none" stroke="#00CC99" stroke-width="2" stroke-linecap="square"/>
<text x="2010" y="189" fill="#00CC99" font-size="20" font-family="Arial" > JQ041646.1 Halophila beccarii</text>
<polyline points="1982,150 1982,181 2001,181" fill="none" stroke="#00CC99" stroke-width="2" stroke-linecap="square"/>
<line x1="1939" y1="148" x2="1982" y2="148" stroke="#00CC99" stroke-width="2" stroke-linecap="square"/>
<text x="2096" y="213" fill="#000000" font-size="20" font-family="Arial" > AF168878.1 Thalassia testudinum</text>
<polyline points="1961,217 1961,205 2087,205" fill="none" stroke="#F79646" stroke-width="2" stroke-linecap="square"/>
<text x="2009" y="237" fill="#000000" font-size="20" font-family="Arial" > JQ041656.1 Thalassia hemprichii</text>
<polyline points="1961,219 1961,229 2000,229" fill="none" stroke="#F79646" stroke-width="2" stroke-linecap="square"/>
<polyline points="1946,241 1946,217 1961,217" fill="none" stroke="#F79646" stroke-width="2" stroke-linecap="square"/>
<text x="1977" y="261" fill="#000000" font-size="20" font-family="Arial" > AY952403.1 Enhalus acoroides</text>
<polyline points="1968,265 1968,253 1968,253" fill="none" stroke="#F79646" stroke-width="2" stroke-linecap="square"/>
<text x="1996" y="285" fill="#000000" font-size="20" font-family="Arial" > JQ041644.1 Enhalus acoroides</text>
<polyline points="1968,267 1968,277 1987,277" fill="none" stroke="#F79646" stroke-width="2" stroke-linecap="square"/>
<polyline points="1946,243 1946,265 1968,265" fill="none" stroke="#F79646" stroke-width="2" stroke-linecap="square"/>
<polyline points="1938,196 1938,241 1946,241" fill="none" stroke="#F79646" stroke-width="2" stroke-linecap="square"/>
<line x1="1938" y1="149" x2="1938" y2="198" stroke="#F79646" stroke-width="2" stroke-linecap="square"/>
<polyline points="1918,247 1918,194 1938,194" fill="none" stroke="#F79646" stroke-width="2" stroke-linecap="square"/>
<text x="1985" y="309" fill="#000000" font-size="20" font-family="Arial" > AY952398.1 Hydrocharis dubia</text>
<polyline points="1918,249 1918,301 1976,301" fill="none" stroke="#F79646" stroke-width="2" stroke-linecap="square"/>
<polyline points="1907,292 1907,247 1918,247" fill="none" stroke="#F79646" stroke-width="2" stroke-linecap="square"/>
<text x="1993" y="333" fill="#000000" font-size="20" font-family="Arial" > EF526335.1 Najas guadalupensis</text>
<polyline points="1984,337 1984,325 1984,325" fill="none" stroke="#F79646" stroke-width="2" stroke-linecap="square"/>
<text x="1993" y="357" fill="#000000" font-size="20" font-family="Arial" > EF526347.1 Najas minor</text>
<polyline points="1984,339 1984,349 1984,349" fill="none" stroke="#F79646" stroke-width="2" stroke-linecap="square"/>
<polyline points="1907,294 1907,337 1984,337" fill="none" stroke="#F79646" stroke-width="2" stroke-linecap="square"/>
<polyline points="1887,338 1887,292 1907,292" fill="none" stroke="#F79646" stroke-width="2" stroke-linecap="square"/>
<text x="2006" y="381" fill="#000000" font-size="20" font-family="Arial" > AF069201.1 Vallisneria americana</text>
<polyline points="1997,385 1997,373 1997,373" fill="none" stroke="#F79646" stroke-width="2" stroke-linecap="square"/>
<text x="2006" y="405" fill="#000000" font-size="20" font-family="Arial" > AY952384.1 Vallisneria asiatica</text>
<polyline points="1997,387 1997,397 1997,397" fill="none" stroke="#F79646" stroke-width="2" stroke-linecap="square"/>
<polyline points="1887,340 1887,385 1997,385" fill="none" stroke="#F79646" stroke-width="2" stroke-linecap="square"/>
<polyline points="1854,379 1854,338 1887,338" fill="none" stroke="#F79646" stroke-width="2" stroke-linecap="square"/>
<text x="1921" y="429" fill="#000000" font-size="20" font-family="Arial" > AY952399.1 Hydrilla verticillata</text>
<polyline points="1854,381 1854,421 1912,421" fill="none" stroke="#F79646" stroke-width="2" stroke-linecap="square"/>
<line x1="1576" y1="379" x2="1854" y2="379" stroke="#F79646" stroke-width="2" stroke-linecap="square"/>
<text x="1818" y="453" fill="#FF0000" font-size="20" font-family="Arial" > JN034103.1 Ruppia maritima</text>
<polyline points="1595,479 1595,445 1809,445" fill="none" stroke="#FF0000" stroke-width="2" stroke-linecap="square"/>
<text x="1692" y="477" fill="#CC00FF" font-size="20" font-family="Arial" > HQ660595.1 Phyllospadix iwatensis</text>
<polyline points="1664,514 1664,469 1683,469" fill="none" stroke="#CC00FF" stroke-width="2" stroke-linecap="square"/>
<text x="1722" y="501" fill="#CC00FF" font-size="20" font-family="Arial" > JQ041650.1 Zostera noltii</text>
<polyline points="1713,505 1713,493 1713,493" fill="none" stroke="#CC00FF" stroke-width="2" stroke-linecap="square"/>
<text x="1722" y="525" fill="#CC00FF" font-size="20" font-family="Arial" > JQ041651.1 Zostera noltii</text>
<polyline points="1713,507 1713,517 1713,517" fill="none" stroke="#CC00FF" stroke-width="2" stroke-linecap="square"/>
<text x="1732" y="549" fill="#CC00FF" font-size="20" font-family="Arial" > AF207058.1 Zostera noltii</text>
<polyline points="1713,553 1713,541 1723,541" fill="none" stroke="#CC00FF" stroke-width="2" stroke-linecap="square"/>
<text x="1732" y="573" fill="#CC00FF" font-size="20" font-family="Arial" > AY952401.1 Halodule uninervis</text>
<polyline points="1713,555 1713,565 1723,565" fill="none" stroke="#CC00FF" stroke-width="2" stroke-linecap="square"/>
<text x="1760" y="597" fill="#CC00FF" font-size="20" font-family="Arial" > JQ041648.1 Zostera marina</text>
<polyline points="1732,625 1732,589 1751,589" fill="none" stroke="#CC00FF" stroke-width="2" stroke-linecap="square"/>
<text x="1760" y="621" fill="#CC00FF" font-size="20" font-family="Arial" > JQ041647.1 Zostera marina</text>
<polyline points="1732,637 1732,613 1751,613" fill="none" stroke="#CC00FF" stroke-width="2" stroke-linecap="square"/>
<text x="1741" y="645" fill="#CC00FF" font-size="20" font-family="Arial" > HQ445940.1 Zostera marina</text>
<polyline points="1732,649 1732,637 1732,637" fill="none" stroke="#CC00FF" stroke-width="2" stroke-linecap="square"/>
<text x="1741" y="669" fill="#CC00FF" font-size="20" font-family="Arial" > JQ041649.1 Zostera marina</text>
<polyline points="1732,651 1732,661 1732,661" fill="none" stroke="#CC00FF" stroke-width="2" stroke-linecap="square"/>
<line x1="1732" y1="625" x2="1732" y2="661" stroke="#CC00FF" stroke-width="2" stroke-linecap="square"/>
<polyline points="1713,585 1713,625 1732,625" fill="none" stroke="#CC00FF" stroke-width="2" stroke-linecap="square"/>
<line x1="1713" y1="494" x2="1713" y2="563" stroke="#CC00FF" stroke-width="2" stroke-linecap="square"/>
<line x1="1713" y1="559" x2="1713" y2="625" stroke="#CC00FF" stroke-width="2" stroke-linecap="square"/>
<polyline points="1664,516 1664,559 1713,559" fill="none" stroke="#CC00FF" stroke-width="2" stroke-linecap="square"/>
<polyline points="1595,481 1595,514 1664,514" fill="none" stroke="#CC00FF" stroke-width="2" stroke-linecap="square"/>
<polyline points="1575,431 1575,479 1595,479" fill="none" stroke="#000000" stroke-width="2" stroke-linecap="square"/>
<line x1="1575" y1="380" x2="1575" y2="433" stroke="#000000" stroke-width="2" stroke-linecap="square"/>
<polyline points="1561,578 1561,429 1575,429" fill="none" stroke="#000000" stroke-width="2" stroke-linecap="square"/>
<text x="1740" y="693" fill="#000000" font-size="20" font-family="Arial" > AY491942.1 Posidonia oceanica</text>
<polyline points="1644,697 1644,685 1731,685" fill="none" stroke="#9BBB59" stroke-width="2" stroke-linecap="square"/>
<text x="1702" y="717" fill="#000000" font-size="20" font-family="Arial" > GQ497582.1 Posidonia australis</text>
<polyline points="1644,699 1644,709 1693,709" fill="none" stroke="#9BBB59" stroke-width="2" stroke-linecap="square"/>
<line x1="1582" y1="697" x2="1644" y2="697" stroke="#9BBB59" stroke-width="2" stroke-linecap="square"/>
<text x="1848" y="741" fill="#000000" font-size="20" font-family="Arial" > AF168883.1 Zannichellia palustris</text>
<polyline points="1800,757 1800,733 1839,733" fill="none" stroke="#9BBB59" stroke-width="2" stroke-linecap="square"/>
<text x="1835" y="765" fill="#000000" font-size="20" font-family="Arial" > EF526353.1 Potamogeton pusillus</text>
<polyline points="1826,781 1826,757 1826,757" fill="none" stroke="#9BBB59" stroke-width="2" stroke-linecap="square"/>
<text x="1835" y="789" fill="#000000" font-size="20" font-family="Arial" > EF526318.1 Potamogeton crispus</text>
<polyline points="1826,793 1826,781 1826,781" fill="none" stroke="#9BBB59" stroke-width="2" stroke-linecap="square"/>
<text x="1835" y="813" fill="#000000" font-size="20" font-family="Arial" > EF526336.1 Potamogeton natans</text>
<polyline points="1826,795 1826,805 1826,805" fill="none" stroke="#9BBB59" stroke-width="2" stroke-linecap="square"/>
<line x1="1826" y1="781" x2="1826" y2="805" stroke="#9BBB59" stroke-width="2" stroke-linecap="square"/>
<polyline points="1800,759 1800,781 1826,781" fill="none" stroke="#9BBB59" stroke-width="2" stroke-linecap="square"/>
<line x1="1582" y1="757" x2="1800" y2="757" stroke="#9BBB59" stroke-width="2" stroke-linecap="square"/>
<line x1="1581" y1="698" x2="1581" y2="731" stroke="#9BBB59" stroke-width="2" stroke-linecap="square"/>
<line x1="1581" y1="727" x2="1581" y2="757" stroke="#9BBB59" stroke-width="2" stroke-linecap="square"/>
<polyline points="1561,580 1561,727 1581,727" fill="none" stroke="#000000" stroke-width="2" stroke-linecap="square"/>
<polyline points="1515,715 1515,578 1561,578" fill="none" stroke="#000000" stroke-width="2" stroke-linecap="square"/>
<text x="1641" y="837" fill="#4BACC6" font-size="20" font-family="Arial" > JQ041657.1 Halodule uninervis</text>
<polyline points="1632,853 1632,829 1632,829" fill="none" stroke="#4BACC6" stroke-width="2" stroke-linecap="square"/>
<text x="1651" y="861" fill="#4BACC6" font-size="20" font-family="Arial" > JQ041645.1 Halodule pinifolia</text>
<polyline points="1632,865 1632,853 1642,853" fill="none" stroke="#4BACC6" stroke-width="2" stroke-linecap="square"/>
<text x="1641" y="885" fill="#4BACC6" font-size="20" font-family="Arial" > JQ041660.1 Halodule wrightii</text>
<polyline points="1632,867 1632,877 1632,877" fill="none" stroke="#4BACC6" stroke-width="2" stroke-linecap="square"/>
<line x1="1632" y1="853" x2="1632" y2="877" stroke="#4BACC6" stroke-width="2" stroke-linecap="square"/>
<line x1="1516" y1="853" x2="1632" y2="853" stroke="#4BACC6" stroke-width="2" stroke-linecap="square"/>
<line x1="1515" y1="715" x2="1515" y2="853" stroke="#000000" stroke-width="2" stroke-linecap="square"/>
<polyline points="1391,814 1391,715 1515,715" fill="none" stroke="#000000" stroke-width="2" stroke-linecap="square"/>
<text x="1480" y="909" fill="#000000" font-size="20" font-family="Arial" > AF168876.1 Syringodium filiforme</text>
<polyline points="1422,913 1422,901 1471,901" fill="none" stroke="#000000" stroke-width="2" stroke-linecap="square"/>
<text x="1460" y="933" fill="#000000" font-size="20" font-family="Arial" > JQ041653.1 Syringodium isoetifolium</text>
<polyline points="1422,915 1422,925 1451,925" fill="none" stroke="#000000" stroke-width="2" stroke-linecap="square"/>
<line x1="1392" y1="913" x2="1422" y2="913" stroke="#000000" stroke-width="2" stroke-linecap="square"/>
<line x1="1391" y1="814" x2="1391" y2="913" stroke="#000000" stroke-width="2" stroke-linecap="square"/>
<polyline points="1365,881 1365,814 1391,814" fill="none" stroke="#000000" stroke-width="2" stroke-linecap="square"/>
<text x="1433" y="957" fill="#000000" font-size="20" font-family="Arial" > JQ041655.1 Cymodocea serrulata</text>
<line x1="1366" y1="949" x2="1424" y2="949" stroke="#000000" stroke-width="2" stroke-linecap="square"/>
<line x1="1365" y1="881" x2="1365" y2="949" stroke="#000000" stroke-width="2" stroke-linecap="square"/>
<line x1="1359" y1="881" x2="1365" y2="881" stroke="#000000" stroke-width="2" stroke-linecap="square"/>
<text x="1420" y="981" fill="#000000" font-size="20" font-family="Arial" > JQ041654.1 Cymodocea rotundata</text>
<line x1="1359" y1="973" x2="1411" y2="973" stroke="#000000" stroke-width="2" stroke-linecap="square"/>
<line x1="1358" y1="882" x2="1358" y2="931" stroke="#000000" stroke-width="2" stroke-linecap="square"/>
<line x1="1358" y1="927" x2="1358" y2="973" stroke="#000000" stroke-width="2" stroke-linecap="square"/>
<polyline points="40,962 40,927 1358,927" fill="none" stroke="#000000" stroke-width="2" stroke-linecap="square"/>
<text x="2097" y="1005" fill="#FF0000" font-size="20" font-family="Arial" > JX446578.1 Salicornia bigelovii</text>
<line x1="41" y1="997" x2="2088" y2="997" stroke="#FF0000" stroke-width="2" stroke-linecap="square"/>
<line x1="40" y1="962" x2="40" y2="997" stroke="#000000" stroke-width="2" stroke-linecap="square"/>
<text x="1972" y="403" fill="#000000" font-size="13" font-family="Arial" >100</text>
<text x="1404" y="931" fill="#000000" font-size="13" font-family="Arial" >84</text>
<text x="1626" y="692" fill="#000000" font-size="13" font-family="Arial" >90</text>
<text x="1984" y="163" fill="#000000" font-size="13" font-family="Arial" >65</text>
<text x="1943" y="212" fill="#000000" font-size="13" font-family="Arial" >63</text>
<text x="1959" y="355" fill="#000000" font-size="13" font-family="Arial" >100</text>
<text x="1950" y="283" fill="#000000" font-size="13" font-family="Arial" >94</text>
<text x="1614" y="871" fill="#000000" font-size="13" font-family="Arial" >99</text>
<text x="1984" y="80" fill="#000000" font-size="13" font-family="Arial" >52</text>
<text x="1964" y="143" fill="#000000" font-size="13" font-family="Arial" >92</text>
<text x="1497" y="710" fill="#000000" font-size="13" font-family="Arial" >60</text>
<text x="1808" y="799" fill="#000000" font-size="13" font-family="Arial" >97</text>
<text x="1782" y="775" fill="#000000" font-size="13" font-family="Arial" >98</text>
<text x="1714" y="643" fill="#000000" font-size="13" font-family="Arial" >85</text>
<text x="1869" y="333" fill="#000000" font-size="13" font-family="Arial" >58</text>
<text x="1695" y="577" fill="#000000" font-size="13" font-family="Arial" >98</text>
<text x="1646" y="532" fill="#000000" font-size="13" font-family="Arial" >96</text>
<text x="1836" y="374" fill="#000000" font-size="13" font-family="Arial" >99</text>
<text x="1889" y="287" fill="#000000" font-size="13" font-family="Arial" >50</text>
<line x1="60" y1="1036" x2="334" y2="1036" stroke="#000000" stroke-width="1" stroke-linecap="square"/>
<line x1="60" y1="1032" x2="60" y2="1040" stroke="#000000" stroke-width="1" stroke-linecap="square"/>
<line x1="334" y1="1032" x2="334" y2="1040" stroke="#000000" stroke-width="1" stroke-linecap="square"/>
<text x="185" y="1072" fill="#000000" font-size="17" font-family="Arial" >0.02</text>
<text x="2070" y="45" fill="#00CC99" font-size="20" font-family="Arial" > JQ041652.1 Halophila ovalis subsp. ramamurthiana from</text>
<polyline points="2012,49 2012,37 2061,37" fill="none" stroke="#00CC99" stroke-width="2" stroke-linecap="square"/>
<text x="2031" y="69" fill="#00CC99" font-size="20" font-family="Arial" > JQ041659.1 Halophila minor</text>
<polyline points="2012,51 2012,61 2022,61" fill="none" stroke="#00CC99" stroke-width="2" stroke-linecap="square"/>
<text x="2031" y="93" fill="#00CC99" font-size="20" font-family="Arial" > JQ041658.1 Halophila ovalis</text>
<polyline points="2012,63 2012,85 2022,85" fill="none" stroke="#00CC99" stroke-width="2" stroke-linecap="square"/>
<line x1="2012" y1="38" x2="2012" y2="65" stroke="#00CC99" stroke-width="2" stroke-linecap="square"/>
<polyline points="2002,85 2002,61 2012,61" fill="none" stroke="#00CC99" stroke-width="2" stroke-linecap="square"/>
<text x="2021" y="117" fill="#00CC99" font-size="20" font-family="Arial" > AY952400.1 Halophila ovalis</text>
<polyline points="2002,87 2002,109 2012,109" fill="none" stroke="#00CC99" stroke-width="2" stroke-linecap="square"/>
<polyline points="1992,115 1992,85 2002,85" fill="none" stroke="#00CC99" stroke-width="2" stroke-linecap="square"/>
<text x="2060" y="141" fill="#00CC99" font-size="20" font-family="Arial" > JQ041643.1 Halophila stipulacea</text>
<polyline points="2002,145 2002,133 2051,133" fill="none" stroke="#00CC99" stroke-width="2" stroke-linecap="square"/>
<text x="2040" y="165" fill="#00CC99" font-size="20" font-family="Arial" > JQ041661.1 Halophila decipiens</text>
<polyline points="2002,147 2002,157 2031,157" fill="none" stroke="#00CC99" stroke-width="2" stroke-linecap="square"/>
<polyline points="1992,117 1992,145 2002,145" fill="none" stroke="#00CC99" stroke-width="2" stroke-linecap="square"/>
<polyline points="1982,148 1982,115 1992,115" fill="none" stroke="#00CC99" stroke-width="2" stroke-linecap="square"/>
<text x="2010" y="189" fill="#00CC99" font-size="20" font-family="Arial" > JQ041646.1 Halophila beccarii</text>
<polyline points="1982,150 1982,181 2001,181" fill="none" stroke="#00CC99" stroke-width="2" stroke-linecap="square"/>
<line x1="1939" y1="148" x2="1982" y2="148" stroke="#00CC99" stroke-width="2" stroke-linecap="square"/>
<text x="2096" y="213" fill="#000000" font-size="20" font-family="Arial" > AF168878.1 Thalassia testudinum</text>
<polyline points="1961,217 1961,205 2087,205" fill="none" stroke="#F79646" stroke-width="2" stroke-linecap="square"/>
<text x="2009" y="237" fill="#000000" font-size="20" font-family="Arial" > JQ041656.1 Thalassia hemprichii</text>
<polyline points="1961,219 1961,229 2000,229" fill="none" stroke="#F79646" stroke-width="2" stroke-linecap="square"/>
<polyline points="1946,241 1946,217 1961,217" fill="none" stroke="#F79646" stroke-width="2" stroke-linecap="square"/>
<text x="1977" y="261" fill="#000000" font-size="20" font-family="Arial" > AY952403.1 Enhalus acoroides</text>
<polyline points="1968,265 1968,253 1968,253" fill="none" stroke="#F79646" stroke-width="2" stroke-linecap="square"/>
<text x="1996" y="285" fill="#000000" font-size="20" font-family="Arial" > JQ041644.1 Enhalus acoroides</text>
<polyline points="1968,267 1968,277 1987,277" fill="none" stroke="#F79646" stroke-width="2" stroke-linecap="square"/>
<polyline points="1946,243 1946,265 1968,265" fill="none" stroke="#F79646" stroke-width="2" stroke-linecap="square"/>
<polyline points="1938,196 1938,241 1946,241" fill="none" stroke="#F79646" stroke-width="2" stroke-linecap="square"/>
<line x1="1938" y1="149" x2="1938" y2="198" stroke="#F79646" stroke-width="2" stroke-linecap="square"/>
<polyline points="1918,247 1918,194 1938,194" fill="none" stroke="#F79646" stroke-width="2" stroke-linecap="square"/>
<text x="1985" y="309" fill="#000000" font-size="20" font-family="Arial" > AY952398.1 Hydrocharis dubia</text>
<polyline points="1918,249 1918,301 1976,301" fill="none" stroke="#F79646" stroke-width="2" stroke-linecap="square"/>
<polyline points="1907,292 1907,247 1918,247" fill="none" stroke="#F79646" stroke-width="2" stroke-linecap="square"/>
<text x="1993" y="333" fill="#000000" font-size="20" font-family="Arial" > EF526335.1 Najas guadalupensis</text>
<polyline points="1984,337 1984,325 1984,325" fill="none" stroke="#F79646" stroke-width="2" stroke-linecap="square"/>
<text x="1993" y="357" fill="#000000" font-size="20" font-family="Arial" > EF526347.1 Najas minor</text>
<polyline points="1984,339 1984,349 1984,349" fill="none" stroke="#F79646" stroke-width="2" stroke-linecap="square"/>
<polyline points="1907,294 1907,337 1984,337" fill="none" stroke="#F79646" stroke-width="2" stroke-linecap="square"/>
<polyline points="1887,338 1887,292 1907,292" fill="none" stroke="#F79646" stroke-width="2" stroke-linecap="square"/>
<text x="2006" y="381" fill="#000000" font-size="20" font-family="Arial" > AF069201.1 Vallisneria americana</text>
<polyline points="1997,385 1997,373 1997,373" fill="none" stroke="#F79646" stroke-width="2" stroke-linecap="square"/>
<text x="2006" y="405" fill="#000000" font-size="20" font-family="Arial" > AY952384.1 Vallisneria asiatica</text>
<polyline points="1997,387 1997,397 1997,397" fill="none" stroke="#F79646" stroke-width="2" stroke-linecap="square"/>
<polyline points="1887,340 1887,385 1997,385" fill="none" stroke="#F79646" stroke-width="2" stroke-linecap="square"/>
<polyline points="1854,379 1854,338 1887,338" fill="none" stroke="#F79646" stroke-width="2" stroke-linecap="square"/>
<text x="1921" y="429" fill="#000000" font-size="20" font-family="Arial" > AY952399.1 Hydrilla verticillata</text>
<polyline points="1854,381 1854,421 1912,421" fill="none" stroke="#F79646" stroke-width="2" stroke-linecap="square"/>
<line x1="1576" y1="379" x2="1854" y2="379" stroke="#F79646" stroke-width="2" stroke-linecap="square"/>
<text x="1818" y="453" fill="#FF0000" font-size="20" font-family="Arial" > JN034103.1 Ruppia maritima</text>
<polyline points="1595,479 1595,445 1809,445" fill="none" stroke="#FF0000" stroke-width="2" stroke-linecap="square"/>
<text x="1692" y="477" fill="#CC00FF" font-size="20" font-family="Arial" > HQ660595.1 Phyllospadix iwatensis</text>
<polyline points="1664,514 1664,469 1683,469" fill="none" stroke="#CC00FF" stroke-width="2" stroke-linecap="square"/>
<text x="1722" y="501" fill="#CC00FF" font-size="20" font-family="Arial" > JQ041650.1 Zostera noltii</text>
<polyline points="1713,505 1713,493 1713,493" fill="none" stroke="#CC00FF" stroke-width="2" stroke-linecap="square"/>
<text x="1722" y="525" fill="#CC00FF" font-size="20" font-family="Arial" > JQ041651.1 Zostera noltii</text>
<polyline points="1713,507 1713,517 1713,517" fill="none" stroke="#CC00FF" stroke-width="2" stroke-linecap="square"/>
<text x="1732" y="549" fill="#CC00FF" font-size="20" font-family="Arial" > AF207058.1 Zostera noltii</text>
<polyline points="1713,553 1713,541 1723,541" fill="none" stroke="#CC00FF" stroke-width="2" stroke-linecap="square"/>
<text x="1732" y="573" fill="#CC00FF" font-size="20" font-family="Arial" > AY952401.1 Halodule uninervis</text>
<polyline points="1713,555 1713,565 1723,565" fill="none" stroke="#CC00FF" stroke-width="2" stroke-linecap="square"/>
<text x="1760" y="597" fill="#CC00FF" font-size="20" font-family="Arial" > JQ041648.1 Zostera marina</text>
<polyline points="1732,625 1732,589 1751,589" fill="none" stroke="#CC00FF" stroke-width="2" stroke-linecap="square"/>
<text x="1760" y="621" fill="#CC00FF" font-size="20" font-family="Arial" > JQ041647.1 Zostera marina</text>
<polyline points="1732,637 1732,613 1751,613" fill="none" stroke="#CC00FF" stroke-width="2" stroke-linecap="square"/>
<text x="1741" y="645" fill="#CC00FF" font-size="20" font-family="Arial" > HQ445940.1 Zostera marina</text>
<polyline points="1732,649 1732,637 1732,637" fill="none" stroke="#CC00FF" stroke-width="2" stroke-linecap="square"/>
<text x="1741" y="669" fill="#CC00FF" font-size="20" font-family="Arial" > JQ041649.1 Zostera marina</text>
<polyline points="1732,651 1732,661 1732,661" fill="none" stroke="#CC00FF" stroke-width="2" stroke-linecap="square"/>
<line x1="1732" y1="625" x2="1732" y2="661" stroke="#CC00FF" stroke-width="2" stroke-linecap="square"/>
<polyline points="1713,585 1713,625 1732,625" fill="none" stroke="#CC00FF" stroke-width="2" stroke-linecap="square"/>
<line x1="1713" y1="494" x2="1713" y2="563" stroke="#CC00FF" stroke-width="2" stroke-linecap="square"/>
<line x1="1713" y1="559" x2="1713" y2="625" stroke="#CC00FF" stroke-width="2" stroke-linecap="square"/>
<polyline points="1664,516 1664,559 1713,559" fill="none" stroke="#CC00FF" stroke-width="2" stroke-linecap="square"/>
<polyline points="1595,481 1595,514 1664,514" fill="none" stroke="#CC00FF" stroke-width="2" stroke-linecap="square"/>
<polyline points="1575,431 1575,479 1595,479" fill="none" stroke="#000000" stroke-width="2" stroke-linecap="square"/>
<line x1="1575" y1="380" x2="1575" y2="433" stroke="#000000" stroke-width="2" stroke-linecap="square"/>
<polyline points="1561,578 1561,429 1575,429" fill="none" stroke="#000000" stroke-width="2" stroke-linecap="square"/>
<text x="1740" y="693" fill="#000000" font-size="20" font-family="Arial" > AY491942.1 Posidonia oceanica</text>
<polyline points="1644,697 1644,685 1731,685" fill="none" stroke="#9BBB59" stroke-width="2" stroke-linecap="square"/>
<text x="1702" y="717" fill="#000000" font-size="20" font-family="Arial" > GQ497582.1 Posidonia australis</text>
<polyline points="1644,699 1644,709 1693,709" fill="none" stroke="#9BBB59" stroke-width="2" stroke-linecap="square"/>
<line x1="1582" y1="697" x2="1644" y2="697" stroke="#9BBB59" stroke-width="2" stroke-linecap="square"/>
<text x="1848" y="741" fill="#000000" font-size="20" font-family="Arial" > AF168883.1 Zannichellia palustris</text>
<polyline points="1800,757 1800,733 1839,733" fill="none" stroke="#9BBB59" stroke-width="2" stroke-linecap="square"/>
<text x="1835" y="765" fill="#000000" font-size="20" font-family="Arial" > EF526353.1 Potamogeton pusillus</text>
<polyline points="1826,781 1826,757 1826,757" fill="none" stroke="#9BBB59" stroke-width="2" stroke-linecap="square"/>
<text x="1835" y="789" fill="#000000" font-size="20" font-family="Arial" > EF526318.1 Potamogeton crispus</text>
<polyline points="1826,793 1826,781 1826,781" fill="none" stroke="#9BBB59" stroke-width="2" stroke-linecap="square"/>
<text x="1835" y="813" fill="#000000" font-size="20" font-family="Arial" > EF526336.1 Potamogeton natans</text>
<polyline points="1826,795 1826,805 1826,805" fill="none" stroke="#9BBB59" stroke-width="2" stroke-linecap="square"/>
<line x1="1826" y1="781" x2="1826" y2="805" stroke="#9BBB59" stroke-width="2" stroke-linecap="square"/>
<polyline points="1800,759 1800,781 1826,781" fill="none" stroke="#9BBB59" stroke-width="2" stroke-linecap="square"/>
<line x1="1582" y1="757" x2="1800" y2="757" stroke="#9BBB59" stroke-width="2" stroke-linecap="square"/>
<line x1="1581" y1="698" x2="1581" y2="731" stroke="#9BBB59" stroke-width="2" stroke-linecap="square"/>
<line x1="1581" y1="727" x2="1581" y2="757" stroke="#9BBB59" stroke-width="2" stroke-linecap="square"/>
<polyline points="1561,580 1561,727 1581,727" fill="none" stroke="#000000" stroke-width="2" stroke-linecap="square"/>
<polyline points="1515,715 1515,578 1561,578" fill="none" stroke="#000000" stroke-width="2" stroke-linecap="square"/>
<text x="1641" y="837" fill="#4BACC6" font-size="20" font-family="Arial" > JQ041657.1 Halodule uninervis</text>
<polyline points="1632,853 1632,829 1632,829" fill="none" stroke="#4BACC6" stroke-width="2" stroke-linecap="square"/>
<text x="1651" y="861" fill="#4BACC6" font-size="20" font-family="Arial" > JQ041645.1 Halodule pinifolia</text>
<polyline points="1632,865 1632,853 1642,853" fill="none" stroke="#4BACC6" stroke-width="2" stroke-linecap="square"/>
<text x="1641" y="885" fill="#4BACC6" font-size="20" font-family="Arial" > JQ041660.1 Halodule wrightii</text>
<polyline points="1632,867 1632,877 1632,877" fill="none" stroke="#4BACC6" stroke-width="2" stroke-linecap="square"/>
<line x1="1632" y1="853" x2="1632" y2="877" stroke="#4BACC6" stroke-width="2" stroke-linecap="square"/>
<line x1="1516" y1="853" x2="1632" y2="853" stroke="#4BACC6" stroke-width="2" stroke-linecap="square"/>
<line x1="1515" y1="715" x2="1515" y2="853" stroke="#000000" stroke-width="2" stroke-linecap="square"/>
<polyline points="1391,814 1391,715 1515,715" fill="none" stroke="#000000" stroke-width="2" stroke-linecap="square"/>
<text x="1480" y="909" fill="#000000" font-size="20" font-family="Arial" > AF168876.1 Syringodium filiforme</text>
<polyline points="1422,913 1422,901 1471,901" fill="none" stroke="#000000" stroke-width="2" stroke-linecap="square"/>
<text x="1460" y="933" fill="#000000" font-size="20" font-family="Arial" > JQ041653.1 Syringodium isoetifolium</text>
<polyline points="1422,915 1422,925 1451,925" fill="none" stroke="#000000" stroke-width="2" stroke-linecap="square"/>
<line x1="1392" y1="913" x2="1422" y2="913" stroke="#000000" stroke-width="2" stroke-linecap="square"/>
<line x1="1391" y1="814" x2="1391" y2="913" stroke="#000000" stroke-width="2" stroke-linecap="square"/>
<polyline points="1365,881 1365,814 1391,814" fill="none" stroke="#000000" stroke-width="2" stroke-linecap="square"/>
<text x="1433" y="957" fill="#000000" font-size="20" font-family="Arial" > JQ041655.1 Cymodocea serrulata</text>
<line x1="1366" y1="949" x2="1424" y2="949" stroke="#000000" stroke-width="2" stroke-linecap="square"/>
<line x1="1365" y1="881" x2="1365" y2="949" stroke="#000000" stroke-width="2" stroke-linecap="square"/>
<line x1="1359" y1="881" x2="1365" y2="881" stroke="#000000" stroke-width="2" stroke-linecap="square"/>
<text x="1420" y="981" fill="#000000" font-size="20" font-family="Arial" > JQ041654.1 Cymodocea rotundata</text>
<line x1="1359" y1="973" x2="1411" y2="973" stroke="#000000" stroke-width="2" stroke-linecap="square"/>
<line x1="1358" y1="882" x2="1358" y2="931" stroke="#000000" stroke-width="2" stroke-linecap="square"/>
<line x1="1358" y1="927" x2="1358" y2="973" stroke="#000000" stroke-width="2" stroke-linecap="square"/>
<polyline points="40,962 40,927 1358,927" fill="none" stroke="#000000" stroke-width="2" stroke-linecap="square"/>
<text x="2097" y="1005" fill="#FF0000" font-size="20" font-family="Arial" > JX446578.1 Salicornia bigelovii</text>
<line x1="41" y1="997" x2="2088" y2="997" stroke="#FF0000" stroke-width="2" stroke-linecap="square"/>
<line x1="40" y1="962" x2="40" y2="997" stroke="#000000" stroke-width="2" stroke-linecap="square"/>
<text x="1972" y="403" fill="#000000" font-size="13" font-family="Arial" >100</text>
<text x="1404" y="931" fill="#000000" font-size="13" font-family="Arial" >84</text>
<text x="1626" y="692" fill="#000000" font-size="13" font-family="Arial" >90</text>
<text x="1984" y="163" fill="#000000" font-size="13" font-family="Arial" >65</text>
<text x="1943" y="212" fill="#000000" font-size="13" font-family="Arial" >63</text>
<text x="1959" y="355" fill="#000000" font-size="13" font-family="Arial" >100</text>
<text x="1950" y="283" fill="#000000" font-size="13" font-family="Arial" >94</text>
<text x="1614" y="871" fill="#000000" font-size="13" font-family="Arial" >99</text>
<text x="1984" y="80" fill="#000000" font-size="13" font-family="Arial" >52</text>
<text x="1964" y="143" fill="#000000" font-size="13" font-family="Arial" >92</text>
<text x="1497" y="710" fill="#000000" font-size="13" font-family="Arial" >60</text>
<text x="1808" y="799" fill="#000000" font-size="13" font-family="Arial" >97</text>
<text x="1782" y="775" fill="#000000" font-size="13" font-family="Arial" >98</text>
<text x="1714" y="643" fill="#000000" font-size="13" font-family="Arial" >85</text>
<text x="1869" y="333" fill="#000000" font-size="13" font-family="Arial" >58</text>
<text x="1695" y="577" fill="#000000" font-size="13" font-family="Arial" >98</text>
<text x="1646" y="532" fill="#000000" font-size="13" font-family="Arial" >96</text>
<text x="1836" y="374" fill="#000000" font-size="13" font-family="Arial" >99</text>
<text x="1889" y="287" fill="#000000" font-size="13" font-family="Arial" >50</text>
<line x1="60" y1="1036" x2="334" y2="1036" stroke="#000000" stroke-width="1" stroke-linecap="square"/>
<line x1="60" y1="1032" x2="60" y2="1040" stroke="#000000" stroke-width="1" stroke-linecap="square"/>
<line x1="334" y1="1032" x2="334" y2="1040" stroke="#000000" stroke-width="1" stroke-linecap="square"/>
<text x="185" y="1072" fill="#000000" font-size="17" font-family="Arial" >0.02</text>
</svg>
